<svg width="70" height="70" viewBox="0 0 70 70" fill="none" xmlns="http://www.w3.org/2000/svg">
<path d="M20.1669 13.5372C20.7499 5.72489 30.078 5.37509 30.078 5.37509C18.1847 1.17743 15.5028 13.0708 16.2025 14.0036C17.1353 15.053 20.0503 15.4028 20.1669 13.5372Z" fill="#947151"/>
<path d="M63.6593 28.6955C62.3767 25.8971 65.9913 16.1025 65.9913 16.1025C65.9913 16.1025 74.853 26.1303 66.2245 30.911C65.7581 31.1442 63.8925 29.1619 63.6593 28.6955ZM10.2557 42.1047C10.2557 42.1047 6.99087 36.741 11.6549 30.0947L5.00864 33.1264C1.86039 39.3063 10.2557 42.1047 10.2557 42.1047Z" fill="#C2ACA1"/>
<path d="M67.1574 54.2309C65.4084 49.4502 65.8748 47.468 65.8748 47.468C70.3056 39.4225 67.274 27.9955 62.8431 27.2959C46.9853 24.4974 26.4634 29.1615 26.4634 23.7978C26.4634 12.7207 17.1353 5.84118 9.78937 12.6041C4.5423 17.5013 8.73996 19.1338 0.694442 29.1615C-1.17118 31.3769 0.927645 33.126 4.5423 33.8256C5.70831 34.0588 6.05812 33.9422 8.97316 32.4264C11.7716 30.9105 15.7361 32.7762 16.7855 27.5291C16.7855 27.5291 16.2025 40.5885 24.1314 49.5668C24.1314 49.5668 25.7638 54.2309 22.6156 66.9405H26.4634L29.9615 57.2625C29.9615 57.2625 29.2618 50.383 31.4773 51.0826C38.3568 53.5313 55.3806 49.3336 55.3806 49.3336C57.013 52.5984 62.2601 55.7467 62.2601 55.7467C62.2601 55.7467 60.6277 59.5946 60.8609 66.9405H64.942C65.1752 64.142 67.1574 54.2309 67.1574 54.2309Z" fill="#F1E7DC"/>
<path d="M21.7993 69.9722H25.5306L26.2302 67.0571H22.3823C22.1491 68.8062 21.7993 69.9722 21.7993 69.9722ZM60.7443 67.0571C60.5111 68.8062 60.6277 69.9722 60.6277 69.9722H64.5921C64.5921 69.9722 64.5921 68.8062 64.8253 67.0571H60.7443Z" fill="#947151"/>
<path d="M11.8882 21.4658C12.8541 21.4658 13.6372 20.6828 13.6372 19.7168C13.6372 18.7508 12.8541 17.9678 11.8882 17.9678C10.9222 17.9678 10.1392 18.7508 10.1392 19.7168C10.1392 20.6828 10.9222 21.4658 11.8882 21.4658Z" fill="#3E4347"/>
<path d="M2.90978 29.9781C2.79318 30.2113 2.21017 30.5611 1.97697 30.3279C1.74377 30.2113 1.86037 29.6283 2.09357 29.2785C2.21017 29.0453 2.55998 28.9287 2.79318 29.1619C3.02638 29.3951 3.02638 29.7449 2.90978 29.9781ZM8.85647 27.1797C9.20627 28.5789 8.85647 30.0947 8.04026 31.3773C7.69045 31.9604 7.10744 32.5434 6.52443 33.0098C5.94143 33.4762 5.24182 33.7094 4.54221 33.9426C5.70822 33.1264 6.75764 32.3102 7.45725 31.1441C7.80705 30.5611 8.04026 29.9781 8.27346 29.2785C8.50666 28.5789 8.73987 27.8793 8.85647 27.1797Z" fill="#C2ACA1"/>
<path d="M20.6333 16.8018C27.8626 16.5686 27.0464 6.77405 25.8804 7.35706C24.0147 8.28987 18.1846 10.9717 18.1846 14.2366C18.1846 14.8196 17.485 16.9184 20.6333 16.8018Z" fill="#F1E7DC"/>
<path d="M19.8172 13.5373C20.4002 11.6717 24.5978 9.57288 25.2974 9.33968C25.9971 8.98987 25.997 14.0037 21.333 15.986C20.8666 16.2192 20.4002 16.2192 20.167 15.8694C19.9338 15.5196 20.9832 14.82 21.6828 14.4702C22.499 14.1203 21.5662 14.2369 20.9832 14.3536C20.4002 14.5868 20.75 14.1203 21.2164 13.8871C21.6828 13.5373 20.5168 13.8871 20.0504 14.3536C19.584 14.82 19.4674 14.82 19.8172 13.5373Z" fill="#C2ACA1"/>
<path d="M17.6017 12.4877C15.5029 3.74256 25.6472 0.0113111 25.6472 0.0113111C10.9554 -0.455096 12.238 13.6537 13.404 14.3533C14.8033 15.1695 18.0681 14.5865 17.6017 12.4877Z" fill="#947151"/>
</svg>
