<svg width="76" height="66" viewBox="0 0 76 66" fill="none" xmlns="http://www.w3.org/2000/svg">
<path d="M69.3244 38.3215C68.1438 22.6785 57.139 11.8845 38.8035 11.8845C20.4681 11.8845 9.4391 23.3472 8.35488 38.9961C7.72241 48.1157 11.1136 56.2413 17.9382 60.8734C22.4317 63.9273 28.7082 65.6199 38.8818 65.6199C49.2301 65.6199 55.1633 63.3851 59.6568 60.3614C67.1439 55.3318 70.0051 47.3085 69.3244 38.3215Z" fill="#FFC022"/>
<path d="M32.6114 21.7029C28.142 10.1378 18.384 2.27116 14.6314 1.09658C13.2159 0.650845 11.4389 0.60868 10.6378 1.90975C8.61392 5.19254 6.02383 15.7336 11.7521 30.6899L32.6114 21.7029Z" fill="#FFC022"/>
<path d="M22.0099 16.6491C22.9375 15.8721 23.3893 15.1132 22.3713 13.541C20.7932 11.1015 17.9561 8.25243 16.8538 7.37903C15.0468 5.94545 13.6493 5.46357 13.1132 7.77056C12.1194 12.0352 12.1977 17.8237 13.2638 21.0162C13.6373 22.1426 14.7938 22.7389 15.6853 21.9618L22.0099 16.6491Z" fill="#FFD1D1"/>
<path d="M32.8522 23.1605C33.5329 23.7388 34.9123 23.6544 35.7134 22.7268C36.6832 21.6004 37.6951 17.8056 37.0627 11.9388C34.2497 12.0412 31.5873 12.4448 29.1057 13.1254C31.1115 16.4142 31.5933 22.0883 32.8522 23.1605Z" fill="#FF9B31"/>
<path d="M44.7546 23.1605C44.074 23.7388 42.6946 23.6544 41.8935 22.7268C40.9237 21.6004 39.9117 17.8056 40.5442 11.9388C43.3572 12.0412 46.0195 12.4448 48.5012 13.1254C46.4954 16.4142 46.0135 22.0883 44.7546 23.1605Z" fill="#FF9B31"/>
<path d="M48.3807 13.6431C53.2476 6.16801 60.0542 1.14444 62.8792 0.246941C64.2766 -0.198796 65.9029 -0.126514 66.698 1.18058C68.6978 4.46337 70.3904 14.5768 66.4451 28.7379L52.0309 21.7869L48.3807 13.6431Z" fill="#FFC022"/>
<path d="M59.0121 19.0703C60.4758 20.534 61.6685 21.5158 62.5298 22.4495C63.102 23.0699 64.1501 22.7868 64.3188 21.9555C65.7945 14.8478 65.3247 8.78822 64.3188 7.19803C63.8369 6.43907 62.9394 6.2403 62.1202 6.51738C60.6505 7.00528 56.9039 9.80017 54.2596 13.8781C53.9524 14.3539 54.0668 14.9924 54.5367 15.3116C55.4884 15.9562 57.1509 17.203 59.0121 19.0703Z" fill="#FFD1D1"/>
<path d="M33.7858 42.8751C33.7557 41.0198 36.418 40.1344 38.9298 40.0922C41.4476 40.05 44.1582 40.8692 44.1883 42.7245C44.2184 44.5797 41.0441 47.0192 39.0443 47.0192C37.0505 47.0192 33.8219 44.7243 33.7858 42.8751Z" fill="black"/>
<path d="M4.28882 38.8275C4.49362 39.0744 6.94517 39.0383 12.9385 41.8814" stroke="#9E9E9E" stroke-width="2.49047" stroke-miterlimit="10" stroke-linecap="round"/>
<path d="M2 45.9531C2 45.9531 5.86707 44.6039 12.517 45.7845" stroke="#9E9E9E" stroke-width="2.49047" stroke-miterlimit="10" stroke-linecap="round"/>
<path d="M5.55988 51.6334C5.55988 51.6334 7.21031 50.8021 13.1916 50.2781" stroke="#9E9E9E" stroke-width="2.49047" stroke-miterlimit="10" stroke-linecap="round"/>
<path d="M73.0588 36.7073C73.0588 36.7073 71.0048 36.9061 64.6621 40.5262" stroke="#9E9E9E" stroke-width="2.49047" stroke-miterlimit="10" stroke-linecap="round"/>
<path d="M73.9924 43.3213C73.9924 43.3213 70.9265 43.1044 64.3248 44.5079" stroke="#9E9E9E" stroke-width="2.49047" stroke-miterlimit="10" stroke-linecap="round"/>
<path d="M72.8058 49.682C72.8058 49.682 69.8965 48.652 63.9031 48.3267" stroke="#9E9E9E" stroke-width="2.49047" stroke-miterlimit="10" stroke-linecap="round"/>
<path d="M58.1328 36.0202C57.928 39.3391 55.868 41.1642 53.5248 41.1642C51.1817 41.1642 49.2843 38.8271 49.2843 35.9479C49.2843 33.0687 51.26 30.7015 53.8923 30.846C56.9462 31.0207 58.3014 33.3096 58.1328 36.0202Z" fill="#000200"/>
<path d="M27.9612 35.6828C28.431 39.062 27.0095 41.122 24.6543 41.5979C22.2991 42.0737 20.2813 40.4895 19.697 37.5983C19.1067 34.701 20.2391 31.9844 22.9135 31.5929C26.0156 31.1411 27.5757 32.918 27.9612 35.6828Z" fill="#000200"/>
<path d="M27.3528 47.3388C25.8047 48.3447 27.6359 50.6758 28.708 51.4649C29.7802 52.2539 31.7077 53.2237 34.5327 52.9346C37.8697 52.5973 38.8275 50.1096 38.8275 50.1096C38.8275 50.1096 40.0141 52.8804 44.1402 52.9948C48.3265 53.1093 49.6215 50.8444 50.1877 50.1698C50.7539 49.4892 51.3201 47.7363 50.3564 47.0617C49.3926 46.381 48.718 47.2304 47.7 48.6459C46.6821 50.0614 44.5919 50.8505 42.556 49.8867C40.5201 48.9229 40.4056 45.6462 40.4056 45.6462L37.5204 45.8148C37.5204 45.8148 37.0686 48.6398 35.7676 49.5434C34.4665 50.4469 31.3584 50.6758 30.0573 48.6941C29.4851 47.8146 28.6538 46.4895 27.3528 47.3388Z" fill="black"/>
</svg>
