<svg width="190" height="190" viewBox="0 0 190 190" fill="none" xmlns="http://www.w3.org/2000/svg">
<g opacity="0.75">
<path d="M54.7388 36.7439C56.3212 15.539 81.6405 14.5895 81.6405 14.5895C49.3585 3.19586 42.0792 35.4779 43.9781 38.0098C46.51 40.8582 54.4223 41.8077 54.7388 36.7439Z" fill="#947151"/>
<path d="M172.79 77.887C169.308 70.2913 179.12 43.7061 179.12 43.7061C179.12 43.7061 203.173 70.9242 179.753 83.9003C178.487 84.5333 173.423 79.153 172.79 77.887ZM27.8372 114.283C27.8372 114.283 18.9754 99.7249 31.635 81.6849L13.5951 89.9137C5.04984 106.688 27.8372 114.283 27.8372 114.283Z" fill="#C2ACA1"/>
<path d="M182.285 147.199C177.537 134.223 178.803 128.843 178.803 128.843C190.83 107.005 182.601 75.9886 170.574 74.0896C127.532 66.4939 71.8293 79.1535 71.8293 64.5949C71.8293 34.5283 46.5101 15.8554 26.5712 34.2118C12.3291 47.5044 23.7228 51.9353 1.88491 79.1535C-3.17893 85.1668 2.5179 89.9142 12.3291 91.8131C15.494 92.4461 16.4435 92.1296 24.3557 88.0152C31.9515 83.9009 42.7122 88.9647 45.5606 74.7226C45.5606 74.7226 43.9782 110.17 65.4995 134.539C65.4995 134.539 69.9304 147.199 61.3851 181.696H71.8293L81.324 155.428C81.324 155.428 79.4251 136.755 85.4384 138.654C104.111 145.3 150.319 133.906 150.319 133.906C154.75 142.768 168.992 151.313 168.992 151.313C168.992 151.313 164.561 161.758 165.194 181.696H176.271C176.904 174.101 182.285 147.199 182.285 147.199Z" fill="#F1E7DC"/>
<path d="M59.1694 189.924H69.2971L71.1961 182.012H60.7519C60.1189 186.76 59.1694 189.924 59.1694 189.924ZM164.877 182.012C164.244 186.76 164.561 189.924 164.561 189.924H175.321C175.321 189.924 175.321 186.76 175.954 182.012H164.877Z" fill="#947151"/>
<path d="M32.2681 58.2652C34.89 58.2652 37.0155 56.1398 37.0155 53.5179C37.0155 50.896 34.89 48.7705 32.2681 48.7705C29.6462 48.7705 27.5208 50.896 27.5208 53.5179C27.5208 56.1398 29.6462 58.2652 32.2681 58.2652Z" fill="#3E4347"/>
<path d="M7.89844 81.3687C7.58195 82.0017 5.99949 82.9512 5.36651 82.3182C4.73353 82.0017 5.05002 80.4193 5.683 79.4698C5.99949 78.8368 6.94897 78.5203 7.58195 79.1533C8.21493 79.7863 8.21493 80.7357 7.89844 81.3687ZM24.0395 73.7729C24.9889 77.5708 24.0395 81.6852 21.824 85.1666C20.8745 86.7491 19.2921 88.3315 17.7096 89.5975C16.1272 90.8634 14.2282 91.4964 12.3293 92.1294C15.4942 89.914 18.3426 87.6985 20.2416 84.5336C21.191 82.9512 21.824 81.3687 22.457 79.4698C23.09 77.5708 23.723 75.6719 24.0395 73.7729Z" fill="#C2ACA1"/>
<path d="M56.0048 45.6055C75.6272 44.9725 73.4118 18.3873 70.2469 19.9698C65.183 22.5017 49.3585 29.781 49.3585 38.6427C49.3585 40.2252 47.4596 45.922 56.0048 45.6055Z" fill="#F1E7DC"/>
<path d="M53.7891 36.7437C55.3716 31.6798 66.7652 25.983 68.6642 25.35C70.5631 24.4005 70.5631 38.0096 57.9035 43.39C56.6375 44.0229 55.3716 44.0229 54.7386 43.0735C54.1056 42.124 56.954 40.225 58.853 39.2756C61.0684 38.3261 58.5365 38.6426 56.954 38.9591C55.3716 39.5921 56.3211 38.3261 57.587 37.6931C58.853 36.7437 55.6881 37.6931 54.4221 38.9591C53.1561 40.2251 52.8397 40.2251 53.7891 36.7437Z" fill="#C2ACA1"/>
<path d="M47.7759 33.8952C42.0791 10.1584 69.6138 0.0307016 69.6138 0.0307016C29.736 -1.23526 33.2174 37.0601 36.3823 38.959C40.1802 41.1745 49.0419 39.592 47.7759 33.8952Z" fill="#947151"/>
</g>
</svg>
