<svg width="100" height="100" viewBox="0 0 100 100" fill="none" xmlns="http://www.w3.org/2000/svg">
<path d="M93.3333 32C99.8333 27.6667 100 21.3333 100 21.3333C93.5 21 93.6667 14.3333 87.6667 8.33333C79.6667 0.333333 69.5 5.33333 69.5 5.33333C70 2.83333 68.6667 1.33333 69.6667 0C56 0 50 5.83333 50 5.83333C50 5.83333 44 0 30.3333 0C31.1667 1.33333 30 2.83333 30.5 5.33333C30.5 5.33333 20.1667 0.166667 12.3333 8.33333C6.33333 14.5 6.5 21.1667 0 21.3333C0 21.3333 0.166667 27.6667 6.66667 32C6.66667 32 -0.166667 38.5 1 52.1667C1 52.1667 3.66667 48.8333 10.1667 47.6667C2.66667 54 7 63.3333 1.5 69.6667C1.5 69.6667 9.16667 71.3333 12.3333 69.1667C11.1667 79 17.1667 82.8333 17.1667 87.6667C24 85.5 25 78.6667 25 78.6667C25 91.1667 29.3333 90.6667 29.3333 97.3333C29.3333 97.3333 36.8333 96.1667 40 89.8333C41.1667 95.6667 47.1667 96.3333 50.3333 100C53.5 96.3333 59.3333 95.6667 60.6667 89.8333C63.8333 96 71.3333 97.3333 71.3333 97.3333C71.3333 90.6667 75.6667 91.1667 75.6667 78.6667C75.6667 78.6667 76.6667 85.3333 83.5 87.6667C83.5 82.8333 89.5 79 88.3333 69.1667C91.5 71.3333 99.1667 69.6667 99.1667 69.6667C93.6667 63.1667 98 53.8333 90.5 47.6667C96.8333 49 99.6667 52.1667 99.6667 52.1667C100.167 38.3333 93.3333 32 93.3333 32Z" fill="#8F6B51"/>
<path d="M89.5 8.50003C85.1667 5.00003 72.6667 8.83336 67.8334 14.8334C73.6667 16.8334 80.5 21.8334 85.6667 33.8334C96.5 28.5 94 12.1667 89.5 8.50003Z" fill="#E5BC5E"/>
<path d="M83.3333 29.1666C89.6666 26.5 88.3333 17.5 85.8333 15.5C83.6666 13.6666 77.3333 15.5 74.6666 18.5C77.6666 20.8333 80.6666 24.3333 83.3333 29.1666Z" fill="#3E4347"/>
<path d="M32.1666 14.8334C27.3333 8.83336 14.8333 5.00003 10.5 8.50003C5.99997 12.1667 3.33331 28.5 14.3333 33.8334C19.6666 22 26.3333 16.8334 32.1666 14.8334Z" fill="#E5BC5E"/>
<path d="M16.6667 29.1666C19.3333 24.3333 22.3333 20.8333 25.3333 18.5C22.5 15.5 16.3333 13.6666 14.1667 15.5C11.6667 17.5 10.3333 26.5 16.6667 29.1666Z" fill="#3E4347"/>
<path d="M78.1667 44.4999C79 40.8333 75.5 32.3333 72.3334 30.6666C71.8334 30.3333 69.8334 30.6666 69.8334 30.6666C69.1667 29.8333 66 20.6666 57.6667 18.9999C52.6667 18.1666 50 22.3333 50 22.3333C50 22.3333 47.3334 17.9999 42.3334 18.9999C34 20.4999 30.6667 29.8333 30.1667 30.6666C30.1667 30.6666 28.1667 30.3333 27.6667 30.6666C24.5 32.4999 21.1667 40.8333 21.8334 44.4999C22.8334 48.9999 30.6667 53.4999 30.6667 61.1666H69.6667C69.5 53.4999 77.3334 48.9999 78.1667 44.4999Z" fill="#E5BC5E"/>
<path d="M50 24.0002L47.8334 28.3336L50 41.8336L52.1667 28.3336L50 24.0002Z" fill="white"/>
<path d="M68.1667 40C68.1667 42.8333 66.3334 45 64.1667 45C62 45 60.1667 42.8333 60.1667 40C60.1667 37.1667 62 35 64.1667 35C66.3334 35 68.1667 37.3333 68.1667 40ZM31.8334 40C31.8334 42.8333 33.6667 45 35.8334 45C38 45 39.8334 42.8333 39.8334 40C39.8334 37.1667 38 35 35.8334 35C33.6667 35 31.8334 37.3333 31.8334 40Z" fill="#3E4347"/>
<path d="M30.8334 66.3335C30.8334 77.0002 43.6667 85.1668 43.6667 85.1668C43.5 83.0002 44.1667 81.3335 44.1667 81.3335C44.6667 84.5002 46.1667 86.8335 46.1667 86.8335C46.1667 84.1668 47.5 83.0002 47.5 83.0002C48.8334 86.6668 50.1667 88.1668 50.1667 88.1668C50.1667 88.1668 51.5 86.6668 52.8334 83.0002C52.8334 83.0002 54.1667 84.1668 54.1667 86.8335C54.1667 86.8335 55.6667 84.5002 56.1667 81.3335C56.1667 81.3335 56.8334 83.1668 56.6667 85.1668C56.6667 85.1668 69.5 77.0002 69.5 66.3335H30.8334Z" fill="white"/>
<path d="M68.8334 57.5001C68.3334 56.5001 59.8334 49.6667 59.8334 49.6667H40.1667C40.1667 49.6667 31.8334 56.3334 31.1667 57.5001C30.3334 59.1667 30.1667 64.5001 30.8334 66.1667C30.8334 66.1667 39 78.5001 50 67.8334C61 78.5001 69.1667 66.1667 69.1667 66.1667C69.8334 64.5001 69.6667 59.1667 68.8334 57.5001Z" fill="#FFDA87"/>
<path d="M51.6667 67.8333V57.9999L58 55.3333C59 54.8333 59.8333 53.6666 59.8333 52.6666V49.8333H40.1667V52.6666C40.1667 53.6666 41 54.8333 42 55.3333L48.3333 57.9999V67.8333C40 75.4999 31.8333 67.1666 31 66.3333C32 67.8333 40 81.1666 50.1667 70.6666C60.1667 81.1666 68.3333 67.6666 69.3333 66.3333C68.3333 67.3333 60 75.6666 51.6667 67.8333Z" fill="#3E4347"/>
<path d="M59.8334 49.8333C57.1667 45 56.8334 44.6667 54.5 43.5C52.5 42.6667 47.6667 42.6667 45.6667 43.5C43.3334 44.5 43 45 40.3334 49.8333H59.8334Z" fill="#FFDA87"/>
<path d="M50 47.1665C43.6666 47.1665 40.1666 49.8332 40.1666 49.8332C40.1666 49.8332 40.5 49.6665 44 52.1665C46.1666 53.8332 48 58.1665 50 58.1665C52 58.1665 53.8333 53.8332 56 52.1665C59.5 49.4998 59.8333 49.8332 59.8333 49.8332C59.8333 49.8332 56.3333 47.1665 50 47.1665Z" fill="#AF7751"/>
</svg>
