<svg width="104" height="92" viewBox="0 0 104 92" fill="none" xmlns="http://www.w3.org/2000/svg">
<g opacity="0.8">
<path d="M95.5158 53.2297C93.8759 31.5011 78.5898 16.5078 53.1213 16.5078C27.6527 16.5078 12.3331 32.4298 10.8271 54.1668C9.9486 66.8341 14.6591 78.1209 24.1387 84.555C30.3803 88.7969 39.0985 91.148 53.23 91.148C67.6042 91.148 75.8455 88.0439 82.0871 83.8438C92.4871 76.8575 96.4613 65.713 95.5158 53.2297Z" fill="#FFC022"/>
<path d="M44.5203 30.1458C38.3121 14.0815 24.7579 3.15449 19.5454 1.52297C17.5792 0.903826 15.111 0.845258 13.9982 2.65249C11.1869 7.21239 7.58921 21.8543 15.546 42.629L44.5203 30.1458Z" fill="#FFC022"/>
<path d="M29.7944 23.1258C31.0829 22.0465 31.7104 20.9923 30.2964 18.8085C28.1043 15.42 24.1635 11.4625 22.6324 10.2493C20.1224 8.25799 18.1813 7.58865 17.4366 10.7931C16.0561 16.7168 16.1649 24.7573 17.6458 29.1917C18.1645 30.7563 19.7709 31.5846 21.0092 30.5053L29.7944 23.1258Z" fill="#FFD1D1"/>
<path d="M44.8548 32.1704C45.8002 32.9736 47.7162 32.8564 48.829 31.5679C50.1761 30.0034 51.5817 24.7323 50.7032 16.583C46.7959 16.7252 43.0978 17.2858 39.6506 18.2313C42.4368 22.7995 43.1061 30.6811 44.8548 32.1704Z" fill="#FF9B31"/>
<path d="M61.3876 32.1704C60.4421 32.9736 58.5261 32.8564 57.4133 31.5679C56.0663 30.0034 54.6607 24.7323 55.5392 16.583C59.4465 16.7252 63.1446 17.2858 66.5917 18.2313C63.8056 22.7995 63.1362 30.6811 61.3876 32.1704Z" fill="#FF9B31"/>
<path d="M66.4243 18.9508C73.1847 8.56757 82.6392 1.58966 86.5632 0.343009C88.5043 -0.276134 90.7633 -0.175733 91.8677 1.63986C94.6455 6.19977 96.9966 20.2476 91.5163 39.918L71.4946 30.2627L66.4243 18.9508Z" fill="#FFC022"/>
<path d="M81.1918 26.4896C83.2249 28.5228 84.8815 29.8866 86.078 31.1834C86.8728 32.0452 88.3286 31.652 88.5629 30.4973C90.6128 20.6245 89.9602 12.2075 88.5629 9.99868C87.8936 8.94446 86.6469 8.66836 85.509 9.05323C83.4675 9.73094 78.2634 13.6131 74.5904 19.2775C74.1636 19.9384 74.3226 20.8253 74.9752 21.2688C76.2972 22.164 78.6064 23.8959 81.1918 26.4896Z" fill="#FFD1D1"/>
<path d="M46.1515 59.5546C46.1096 56.9776 49.8078 55.7477 53.2967 55.6892C56.794 55.6306 60.5591 56.7685 60.6009 59.3455C60.6428 61.9224 56.2335 65.311 53.4557 65.311C50.6863 65.311 46.2017 62.1232 46.1515 59.5546Z" fill="black"/>
<path d="M5.17944 53.9326C5.46391 54.2757 8.8692 54.2255 17.1942 58.1746" stroke="#9E9E9E" stroke-width="2.49047" stroke-miterlimit="10" stroke-linecap="round"/>
<path d="M2 63.8306C2 63.8306 7.37148 61.9564 16.6084 63.5963" stroke="#9E9E9E" stroke-width="2.49047" stroke-miterlimit="10" stroke-linecap="round"/>
<path d="M6.94482 71.7204C6.94482 71.7204 9.23733 70.5658 17.5456 69.8379" stroke="#9E9E9E" stroke-width="2.49047" stroke-miterlimit="10" stroke-linecap="round"/>
<path d="M100.703 50.9875C100.703 50.9875 97.85 51.2636 89.0398 56.2921" stroke="#9E9E9E" stroke-width="2.49047" stroke-miterlimit="10" stroke-linecap="round"/>
<path d="M102 60.1745C102 60.1745 97.7413 59.8733 88.5713 61.8228" stroke="#9E9E9E" stroke-width="2.49047" stroke-miterlimit="10" stroke-linecap="round"/>
<path d="M100.352 69.0095C100.352 69.0095 96.3106 67.5788 87.9856 67.127" stroke="#9E9E9E" stroke-width="2.49047" stroke-miterlimit="10" stroke-linecap="round"/>
<path d="M79.9703 50.0332C79.6858 54.6433 76.8244 57.1785 73.5697 57.1785C70.315 57.1785 67.6794 53.9321 67.6794 49.9328C67.6794 45.9335 70.4238 42.6453 74.08 42.8461C78.322 43.0888 80.2045 46.2682 79.9703 50.0332Z" fill="#000200"/>
<path d="M38.0609 49.5649C38.7135 54.2587 36.7389 57.1202 33.4675 57.7811C30.1961 58.4421 27.3932 56.2417 26.5816 52.2256C25.7617 48.2012 27.3346 44.4277 31.0495 43.8839C35.3584 43.2564 37.5254 45.7246 38.0609 49.5649Z" fill="#000200"/>
<path d="M37.2158 65.7549C35.0656 67.1521 37.6091 70.3901 39.0984 71.4861C40.5876 72.5822 43.265 73.9292 47.189 73.5276C51.8242 73.0591 53.1546 69.6036 53.1546 69.6036C53.1546 69.6036 54.8028 73.4523 60.5341 73.6113C66.349 73.7703 68.1479 70.6244 68.9344 69.6873C69.7208 68.7418 70.5073 66.3071 69.1686 65.37C67.8299 64.4246 66.8929 65.6043 65.4789 67.5705C64.0649 69.5367 61.1616 70.6327 58.3336 69.294C55.5056 67.9553 55.3467 63.4038 55.3467 63.4038L51.339 63.6381C51.339 63.6381 50.7115 67.5621 48.9042 68.8171C47.097 70.0721 42.7797 70.3901 40.9725 67.6374C40.1777 66.4159 39.023 64.5752 37.2158 65.7549Z" fill="black"/>
</g>
</svg>
