<svg width="100" height="100" viewBox="0 0 100 100" fill="none" xmlns="http://www.w3.org/2000/svg">
<path d="M58.1667 34.5L62.3333 3.5C58.3333 2.5 54.3333 0 50 0C45.6667 0 41.6667 2.5 37.5 3.66667C33.3333 4.66667 28.6667 4.5 25 6.66667C21.3333 8.83333 19 13 16 16C13 19 8.83333 21.3333 6.66667 25C4.5 28.6667 4.66667 33.3333 3.5 37.5C2.5 41.6667 0 45.6667 0 50C0 54.3333 2.5 58.3333 3.66667 62.5C4.66667 66.6667 4.5 71.3333 6.66667 75C8.83333 78.6667 13 81 16 84C19 87 21.1667 91.1667 25 93.3333C28.6667 95.5 33.3333 95.3333 37.5 96.5C41.6667 97.5 45.6667 100 50 100C54.3333 100 58.3333 97.5 62.5 96.3333C66.6667 95.1667 71.3333 95.3333 75 93.1667C78.6667 91 81 86.8333 84 83.8333C87 80.8333 91.1667 78.6667 93.3333 74.8333C95.5 71.1667 95.3333 66.5 96.5 62.3333C97.5 58.3333 100 54.3333 100 50C100 45.6667 96.5 36.5 96.5 36.5L58.1667 34.5Z" fill="#DDA85F"/>
<path d="M95.6667 34C94 34.5 91.6667 34.3333 89.1667 33.3333C85.6667 32 83.5 29.1667 82.8334 25.8333C81.1667 26.3333 77.1667 25.8333 74.5 24.1667C70.5 21.6667 69.6667 14.6667 69.6667 14.6667C65.1667 13.3333 61.8334 8 62.3334 3.5C58.6667 2.5 54 2.66667 50 2.66667C46 2.66667 42.3334 5 38.6667 6C34.8334 7 30.5 6.83333 27.1667 8.83333C23.8334 10.8333 21.6667 14.6667 19 17.3333C16.1667 20.1667 12.3334 22.1667 10.5 25.5C8.50004 28.8333 8.66671 33.1667 7.66671 37C6.66671 40.6667 4.33337 44.3333 4.33337 48.3333C4.33337 52.3333 6.66671 56 7.66671 59.6667C8.66671 63.5 8.50004 67.8333 10.5 71.1667C12.5 74.5 16.3334 76.6667 19 79.3333C21.8334 82.1667 23.8334 86 27.1667 87.8333C30.5 89.8333 34.8334 89.6667 38.6667 90.6667C42.3334 91.6667 46 94 50 94C54 94 57.6667 91.6667 61.3334 90.6667C65.1667 89.6667 69.5 89.8333 72.8334 87.8333C76.1667 85.8333 78.3334 82 81 79.3333C83.8334 76.5 87.6667 74.5 89.5 71.1667C91.5 67.8333 91.3334 63.5 92.3334 59.6667C93.3334 56 97.3334 53 97.8334 49C99.1667 42.5 95.8334 35.1667 95.6667 34Z" fill="#F2CB7D"/>
<path d="M80.1666 14.6668L77.8333 17.0002L75.6666 14.6668L77.8333 12.5002L80.1666 14.6668ZM89.6666 26.3335L88.6666 27.5002L87.5 26.3335L88.6666 25.1668L89.6666 26.3335ZM81.3333 18.6668L80.1666 19.8335L79 18.6668L80.1666 17.5002L81.3333 18.6668ZM71 8.50016L69.8333 9.66683L68.6666 8.50016L69.8333 7.3335L71 8.50016ZM92 30.5002L90.8333 31.6668L89.6666 30.5002L90.8333 29.3335L92 30.5002ZM93 26.3335L91.8333 27.5002L90.6666 26.3335L91.8333 25.1668L93 26.3335Z" fill="#DDA85F"/>
<path d="M16.3334 30.9999C14.6667 33.8333 17.1667 38.9999 20.5 40.4999C25.3334 42.4999 28.1667 42.8333 31.1667 37.6666C32.1667 35.8333 33.5 30.9999 33 29.8333C32.3334 28.1666 29.5 24.8333 27.6667 24.8333C22.5 24.9999 17.5 28.9999 16.3334 30.9999Z" fill="#6D4934"/>
<path d="M17.1667 31C16 33 19 39 23 38.5C28.5 37.8333 28 26.5 25.6667 26.5C21.6667 26.5 18 29.5 17.1667 31Z" fill="#A37F6A"/>
<path d="M72 61.8333C74.3333 61.1666 76 57 75 54.5C73.5 50.6666 72 49 67.6666 50.1666C66.1666 50.6666 62.6666 52.5 62.3333 53.3333C61.8333 54.6666 61.5 58 62.5 59C65.3333 61.8333 70.3333 62.3333 72 61.8333Z" fill="#6D4934"/>
<path d="M69.6666 57.8333C71.5 57.3333 74.3333 51.6667 71.3333 51.3333C66.1666 50.5 62.1666 53 62.6666 55.8333C63.1666 58.6667 68.3333 58.1667 69.6666 57.8333Z" fill="#A37F6A"/>
<path d="M38.1667 70.8332C37.6667 68.8332 34 67.3332 31.6667 68.3332C28.3334 69.6665 26.8334 70.8332 28 74.6665C28.3334 75.9999 30 78.9999 30.8334 79.1665C32 79.6665 34.8334 79.8332 35.6667 78.9999C38.1667 76.6665 38.5 72.3332 38.1667 70.8332Z" fill="#6D4934"/>
<path d="M35.3333 69.3333C35 67.8333 28 69.9999 28.6667 72.6666C30 77.1666 30 77.8333 31.3333 77.6666C33.8333 76.9999 35.5 70.4999 35.3333 69.3333Z" fill="#A37F6A"/>
<path d="M81.8333 39.1667C79.8333 39.6667 78.3333 43.3333 79.3333 45.6667C80.6666 49 83.8333 49.5 87.3333 47.6667C90.3333 46.1667 90.5 40.8333 89.6666 39.8333C87.1666 37.3333 83.3333 38.8333 81.8333 39.1667Z" fill="#6D4934"/>
<path d="M81 40.9998C80 42.1664 79.1667 46.8331 81.6667 46.1664C86.1667 44.8331 89.3334 40.3331 87.3334 39.6664C84.8334 38.8331 82.1667 39.6664 81 40.9998Z" fill="#A37F6A"/>
<path d="M34.5667 23.52L37.8666 20.22L41.1667 23.52L37.8666 26.82L34.5667 23.52Z" fill="#6D4934"/>
<path d="M21.1766 52.4719L24.475 49.1719L27.775 52.4702L24.4766 55.7702L21.1766 52.4719ZM54.4966 71.3519L57.7966 68.0519L61.0966 71.3519L57.7966 74.6519L54.4966 71.3519ZM50.0633 62.1486L54.5416 57.6702L59.02 62.1486L54.5416 66.6269L50.0633 62.1486ZM37.8266 13.0452L42.305 8.56689L46.7833 13.0452L42.305 17.5236L37.8266 13.0452Z" fill="#DDA85F"/>
<path d="M65.2033 73.9115L68.5033 70.6115L71.8033 73.9115L68.5033 77.2115L65.2033 73.9115ZM78.46 55.3581L81.76 52.0581L85.06 55.3581L81.76 58.6581L78.46 55.3581ZM66.3533 37.7281L68.0033 36.0781L69.6533 37.7281L68.0033 39.3781L66.3533 37.7281ZM19.5433 60.4431L21.1933 58.7931L22.8433 60.4431L21.1933 62.0931L19.5433 60.4431Z" fill="#6D4934"/>
</svg>
