<svg width="59" height="59" viewBox="0 0 59 59" fill="none" xmlns="http://www.w3.org/2000/svg">
<path d="M16.9977 11.41C17.4891 4.82528 25.3514 4.53045 25.3514 4.53045C15.327 0.992418 13.0666 11.0168 13.6563 11.8031C14.4425 12.6876 16.8995 12.9824 16.9977 11.41Z" fill="#947151"/>
<path d="M53.6558 24.186C52.5747 21.8273 55.6213 13.5719 55.6213 13.5719C55.6213 13.5719 63.0905 22.0238 55.8179 26.0533C55.4248 26.2498 53.8523 24.5791 53.6558 24.186ZM8.64415 35.488C8.64415 35.488 5.89235 30.9672 9.82349 25.3653L4.22161 27.9205C1.56809 33.1293 8.64415 35.488 8.64415 35.488Z" fill="#C2ACA1"/>
<path d="M56.6041 45.7091C55.13 41.6797 55.5231 40.0089 55.5231 40.0089C59.2577 33.2277 56.7024 23.5964 52.9678 23.0067C39.6019 20.648 22.3049 24.5792 22.3049 20.0584C22.3049 10.7219 14.4426 4.92346 8.25105 10.6236C3.82851 14.7513 7.36654 16.1272 0.585316 24.5792C-0.987142 26.4465 0.781873 27.9207 3.82851 28.5103C4.8113 28.7069 5.10613 28.6086 7.5631 27.331C9.92179 26.0534 13.2633 27.6258 14.1478 23.2033C14.1478 23.2033 13.6564 34.2105 20.3393 41.7779C20.3393 41.7779 21.7152 45.7091 19.0617 56.4215H22.3049L25.2533 48.2643C25.2533 48.2643 24.6636 42.4659 26.5309 43.0556C32.3293 45.1194 46.678 41.5814 46.678 41.5814C48.0539 44.3332 52.4764 46.9867 52.4764 46.9867C52.4764 46.9867 51.1005 50.2299 51.2971 56.4215H54.7368C54.9334 54.0628 56.6041 45.7091 56.6041 45.7091Z" fill="#F1E7DC"/>
<path d="M18.3738 58.9766H21.5187L22.1084 56.5197H18.8652C18.6686 57.9939 18.3738 58.9766 18.3738 58.9766ZM51.1988 56.5197C51.0023 57.9939 51.1006 58.9766 51.1006 58.9766H54.442C54.442 58.9766 54.442 57.9939 54.6386 56.5197H51.1988Z" fill="#947151"/>
<path d="M10.0201 18.0928C10.8342 18.0928 11.4943 17.4328 11.4943 16.6186C11.4943 15.8045 10.8342 15.1445 10.0201 15.1445C9.20591 15.1445 8.5459 15.8045 8.5459 16.6186C8.5459 17.4328 9.20591 18.0928 10.0201 18.0928Z" fill="#3E4347"/>
<path d="M2.4527 25.2671C2.35442 25.4636 1.86302 25.7585 1.66647 25.5619C1.46991 25.4636 1.56819 24.9722 1.76475 24.6774C1.86302 24.4808 2.15786 24.3826 2.35442 24.5791C2.55097 24.7757 2.55097 25.0705 2.4527 25.2671ZM7.46491 22.9084C7.75974 24.0877 7.46491 25.3654 6.77696 26.4464C6.48212 26.9378 5.99073 27.4292 5.49933 27.8223C5.00794 28.2154 4.41827 28.412 3.8286 28.6085C4.81138 27.9206 5.69589 27.2326 6.28556 26.2499C6.5804 25.7585 6.77696 25.2671 6.97351 24.6774C7.17007 24.0877 7.36663 23.4981 7.46491 22.9084Z" fill="#C2ACA1"/>
<path d="M17.3909 14.1617C23.4842 13.9651 22.7962 5.70969 21.8135 6.20109C20.241 6.98731 15.3271 9.24772 15.3271 11.9995C15.3271 12.4909 14.7374 14.2599 17.3909 14.1617Z" fill="#F1E7DC"/>
<path d="M16.7029 11.4098C17.1943 9.83734 20.7323 8.06832 21.322 7.87176C21.9117 7.57693 21.9117 11.8029 17.9805 13.4736C17.5874 13.6702 17.1943 13.6702 16.9978 13.3754C16.8012 13.0805 17.6857 12.4909 18.2754 12.196C18.9633 11.9012 18.1771 11.9995 17.6857 12.0977C17.1943 12.2943 17.4892 11.9012 17.8823 11.7046C18.2754 11.4098 17.2926 11.7046 16.8995 12.0977C16.5064 12.4909 16.4081 12.4909 16.7029 11.4098Z" fill="#C2ACA1"/>
<path d="M14.8357 10.5253C13.0667 3.15445 21.6169 0.00953366 21.6169 0.00953366C9.23379 -0.383581 10.3149 11.5081 11.2976 12.0978C12.477 12.7858 15.2288 12.2944 14.8357 10.5253Z" fill="#947151"/>
</svg>
