<svg width="100" height="100" viewBox="0 0 100 100" fill="none" xmlns="http://www.w3.org/2000/svg">
<path d="M28.8099 19.3389C29.6428 8.17842 42.9687 7.6787 42.9687 7.6787C25.9782 1.68203 22.147 18.6726 23.1464 20.0052C24.479 21.5043 28.6434 22.0041 28.8099 19.3389Z" fill="#947151"/>
<path d="M90.9421 40.9932C89.1098 36.9954 94.2736 23.0032 94.2736 23.0032C94.2736 23.0032 106.933 37.3285 94.6067 44.1581C93.9404 44.4912 91.2752 41.6595 90.9421 40.9932ZM14.6512 60.1492C14.6512 60.1492 9.98713 52.4868 16.6501 42.992L7.15537 47.323C2.65788 56.1514 14.6512 60.1492 14.6512 60.1492Z" fill="#C2ACA1"/>
<path d="M95.9392 77.473C93.4406 70.6435 94.1069 67.8118 94.1069 67.8118C100.437 56.3182 96.1058 39.9939 89.776 38.9945C67.1219 34.9967 37.8049 41.6596 37.8049 33.9972C37.8049 18.1727 24.479 8.34485 13.9848 18.0061C6.489 25.0022 12.4857 27.3343 0.99206 41.6596C-1.67312 44.8246 1.32521 47.3232 6.489 48.3226C8.15474 48.6558 8.65446 48.4892 12.8188 46.3237C16.8166 44.1583 22.4801 46.8234 23.9793 39.3276C23.9793 39.3276 23.1464 57.9839 34.4734 70.8101C34.4734 70.8101 36.8055 77.473 32.308 95.6296H37.8049L42.8021 81.804C42.8021 81.804 41.8027 71.9761 44.9676 72.9755C54.7954 76.4736 79.1152 70.4769 79.1152 70.4769C81.4473 75.141 88.9431 79.6385 88.9431 79.6385C88.9431 79.6385 86.6111 85.1355 86.9442 95.6296H92.7743C93.1075 91.6318 95.9392 77.473 95.9392 77.473Z" fill="#F1E7DC"/>
<path d="M31.1418 99.9605H36.4722L37.4717 95.7961H31.9747C31.6416 98.2948 31.1418 99.9605 31.1418 99.9605ZM86.7775 95.7961C86.4444 98.2948 86.611 99.9605 86.611 99.9605H92.2745C92.2745 99.9605 92.2745 98.2948 92.6076 95.7961H86.7775Z" fill="#947151"/>
<path d="M16.9832 30.6659C18.3632 30.6659 19.4818 29.5473 19.4818 28.1673C19.4818 26.7874 18.3632 25.6687 16.9832 25.6687C15.6033 25.6687 14.4846 26.7874 14.4846 28.1673C14.4846 29.5473 15.6033 30.6659 16.9832 30.6659Z" fill="#3E4347"/>
<path d="M4.15701 42.8257C3.99043 43.1588 3.15756 43.6585 2.82442 43.3254C2.49127 43.1588 2.65784 42.3259 2.99099 41.8262C3.15756 41.4931 3.65729 41.3265 3.99043 41.6596C4.32358 41.9928 4.32358 42.4925 4.15701 42.8257ZM12.6523 38.8279C13.152 40.8268 12.6523 42.9922 11.4863 44.8245C10.9865 45.6574 10.1537 46.4903 9.3208 47.1566C8.48793 47.8229 7.48849 48.156 6.48904 48.4892C8.15478 47.3232 9.65395 46.1571 10.6534 44.4914C11.1531 43.6585 11.4863 42.8257 11.8194 41.8262C12.1526 40.8268 12.4857 39.8273 12.6523 38.8279Z" fill="#C2ACA1"/>
<path d="M29.4762 24.0028C39.8038 23.6697 38.6378 9.67749 36.972 10.5104C34.3069 11.843 25.9782 15.6742 25.9782 20.3382C25.9782 21.1711 24.9787 24.1694 29.4762 24.0028Z" fill="#F1E7DC"/>
<path d="M28.3101 19.3387C29.143 16.6735 35.1396 13.6752 36.1391 13.342C37.1385 12.8423 37.1385 20.005 30.4756 22.8367C29.8093 23.1699 29.143 23.1699 28.8098 22.6702C28.4767 22.1704 29.9758 21.171 30.9753 20.6713C32.1413 20.1715 30.8087 20.3381 29.9758 20.5047C29.143 20.8378 29.6427 20.1715 30.309 19.8384C30.9753 19.3387 29.3095 19.8384 28.6432 20.5047C27.9769 21.171 27.8104 21.171 28.3101 19.3387Z" fill="#C2ACA1"/>
<path d="M25.1453 17.8396C22.1469 5.34653 36.6389 0.0161587 36.6389 0.0161587C15.6506 -0.650137 17.4829 19.5053 19.1486 20.5048C21.1475 21.6708 25.8116 20.8379 25.1453 17.8396Z" fill="#947151"/>
</svg>
