<svg width="90" height="90" viewBox="0 0 90 90" fill="none" xmlns="http://www.w3.org/2000/svg">
<path d="M45 90C69.8528 90 90 69.8528 90 45C90 20.1472 69.8528 0 45 0C20.1472 0 0 20.1472 0 45C0 69.8528 20.1472 90 45 90Z" fill="#FFDD67"/>
<path d="M22.5 58.5C31.6127 58.5 39 51.1127 39 42C39 32.8873 31.6127 25.5 22.5 25.5C13.3873 25.5 6 32.8873 6 42C6 51.1127 13.3873 58.5 22.5 58.5Z" fill="white"/>
<path d="M67.5 58.5C76.6127 58.5 84 51.1127 84 42C84 32.8873 76.6127 25.5 67.5 25.5C58.3873 25.5 51 32.8873 51 42C51 51.1127 58.3873 58.5 67.5 58.5Z" fill="white"/>
<path d="M51 37.4999C48.3 35.5499 41.7 35.5499 39 37.4999C37.35 35.9999 37.65 34.3499 36 32.8499C40.65 29.3999 48.6 28.7999 54 32.8499C52.35 34.3499 52.65 35.9999 51 37.4999Z" fill="#494949"/>
<path d="M67.5 22.5C56.7 22.5 48 31.2 48 42C48 52.8 56.7 61.5 67.5 61.5C78.3 61.5 87 52.8 87 42C87 31.2 78.3 22.5 67.5 22.5ZM67.5 57C59.25 57 52.5 50.25 52.5 42C52.5 33.75 59.25 27 67.5 27C75.75 27 82.5 33.75 82.5 42C82.5 50.25 75.75 57 67.5 57ZM22.5 22.5C11.7 22.5 3 31.2 3 42C3 52.8 11.7 61.5 22.5 61.5C33.3 61.5 42 52.8 42 42C42 31.2 33.3 22.5 22.5 22.5ZM22.5 57C14.25 57 7.5 50.25 7.5 42C7.5 33.75 14.25 27 22.5 27C30.75 27 37.5 33.75 37.5 42C37.5 50.25 30.75 57 22.5 57Z" fill="#494949"/>
<path d="M27 50.25C30.3137 50.25 33 46.8921 33 42.75C33 38.6079 30.3137 35.25 27 35.25C23.6863 35.25 21 38.6079 21 42.75C21 46.8921 23.6863 50.25 27 50.25Z" fill="#664E27"/>
<path d="M63 50.25C66.3137 50.25 69 46.8921 69 42.75C69 38.6079 66.3137 35.25 63 35.25C59.6863 35.25 57 38.6079 57 42.75C57 46.8921 59.6863 50.25 63 50.25Z" fill="#664E27"/>
<path d="M37.05 73.9498C45.75 76.1998 55.05 74.5498 62.4 69.4498C64.2 68.0998 60.75 63.4498 58.95 64.6498C54.15 68.0998 46.35 70.3498 38.4 68.2498C36.45 67.7998 34.8 73.3498 37.05 73.9498Z" fill="#664E27"/>
<path d="M76.8 20.55C72 16.5 65.55 14.7 59.25 15.9C58.35 16.05 57.6 12.9 58.65 12.6C65.85 11.25 73.35 13.35 78.9 18C79.8 18.75 77.4 21.15 76.8 20.55ZM30.75 15.6C24.45 14.55 18 16.2 13.2 20.25C12.6 20.85 10.2 18.45 11.1 17.7C16.65 12.9 24.15 10.95 31.35 12.3C32.4 12.6 31.65 15.75 30.75 15.6Z" fill="#917524"/>
</svg>
