<svg width="72" height="70" viewBox="0 0 72 70" fill="none" xmlns="http://www.w3.org/2000/svg">
<path d="M20.8541 13.5372C21.4433 5.72489 30.8714 5.37509 30.8714 5.37509C18.8506 1.17743 16.1401 13.0708 16.8472 14.0036C17.79 15.053 20.7362 15.4028 20.8541 13.5372Z" fill="#947151"/>
<path d="M64.8123 28.6955C63.5159 25.8971 67.1693 16.1025 67.1693 16.1025C67.1693 16.1025 76.1259 26.1303 67.405 30.911C66.9336 31.1442 65.048 29.1619 64.8123 28.6955ZM10.8369 42.1047C10.8369 42.1047 7.53705 36.741 12.2511 30.0947L5.5336 33.1264C2.35164 39.3063 10.8369 42.1047 10.8369 42.1047Z" fill="#C2ACA1"/>
<path d="M68.3477 54.2309C66.58 49.4502 67.0514 47.468 67.0514 47.468C71.5297 39.4225 68.4656 27.9955 63.9873 27.2959C47.9596 24.4974 27.218 29.1615 27.218 23.7978C27.218 12.7207 17.79 5.84118 10.3654 12.6041C5.06213 17.5013 9.30474 19.1338 1.17307 29.1615C-0.712535 31.3769 1.40877 33.126 5.06213 33.8256C6.24063 34.0588 6.59418 33.9422 9.54044 32.4264C12.3688 30.9105 16.3758 32.7762 17.4364 27.5291C17.4364 27.5291 16.8472 40.5885 24.861 49.5668C24.861 49.5668 26.5109 54.2309 23.3289 66.9405H27.218L30.7535 57.2625C30.7535 57.2625 30.0464 50.383 32.2855 51.0826C39.2387 53.5313 56.4449 49.3336 56.4449 49.3336C58.0948 52.5984 63.398 55.7467 63.398 55.7467C63.398 55.7467 61.7481 59.5946 61.9838 66.9405H66.1086C66.3443 64.142 68.3477 54.2309 68.3477 54.2309Z" fill="#F1E7DC"/>
<path d="M22.5039 69.9722H26.2751L26.9822 67.0571H23.0932C22.8575 68.8062 22.5039 69.9722 22.5039 69.9722ZM61.8659 67.0571C61.6302 68.8062 61.7481 69.9722 61.7481 69.9722H65.755C65.755 69.9722 65.755 68.8062 65.9907 67.0571H61.8659Z" fill="#947151"/>
<path d="M12.4867 21.4658C13.4631 21.4658 14.2545 20.6828 14.2545 19.7168C14.2545 18.7508 13.4631 17.9678 12.4867 17.9678C11.5104 17.9678 10.719 18.7508 10.719 19.7168C10.719 20.6828 11.5104 21.4658 12.4867 21.4658Z" fill="#3E4347"/>
<path d="M3.41228 29.9781C3.29443 30.2113 2.70518 30.5611 2.46948 30.3279C2.23378 30.2113 2.35163 29.6283 2.58733 29.2785C2.70518 29.0453 3.05873 28.9287 3.29443 29.1619C3.53013 29.3951 3.53013 29.7449 3.41228 29.9781ZM9.42265 27.1797C9.7762 28.5789 9.42265 30.0947 8.59769 31.3773C8.24414 31.9604 7.65489 32.5434 7.06564 33.0098C6.47639 33.4762 5.76929 33.7094 5.06219 33.9426C6.24069 33.1264 7.30134 32.3102 8.00844 31.1441C8.36199 30.5611 8.5977 29.9781 8.8334 29.2785C9.0691 28.5789 9.3048 27.8793 9.42265 27.1797Z" fill="#C2ACA1"/>
<path d="M21.3255 16.8018C28.6322 16.5686 27.8073 6.77405 26.6288 7.35706C24.7432 8.28987 18.8506 10.9717 18.8506 14.2366C18.8506 14.8196 18.1435 16.9184 21.3255 16.8018Z" fill="#F1E7DC"/>
<path d="M20.5005 13.5373C21.0897 11.6717 25.3324 9.57288 26.0395 9.33968C26.7466 8.98987 26.7466 14.0037 22.0325 15.986C21.5611 16.2192 21.0897 16.2192 20.854 15.8694C20.6183 15.5196 21.679 14.82 22.3861 14.4702C23.211 14.1203 22.2682 14.2369 21.679 14.3536C21.0897 14.5868 21.4433 14.1203 21.9147 13.8871C22.3861 13.5373 21.2076 13.8871 20.7362 14.3536C20.2648 14.82 20.1469 14.82 20.5005 13.5373Z" fill="#C2ACA1"/>
<path d="M18.2613 12.4877C16.14 3.74256 26.393 0.0113111 26.393 0.0113111C11.5439 -0.455096 12.8402 13.6537 14.0187 14.3533C15.4329 15.1695 18.7327 14.5865 18.2613 12.4877Z" fill="#947151"/>
</svg>
