<svg width="37" height="37" viewBox="0 0 37 37" fill="none" xmlns="http://www.w3.org/2000/svg">
<path fill-rule="evenodd" clip-rule="evenodd" d="M19.0328 14.135C10.9688 17.7737 5.86029 26.413 7.19168 34.1824C7.48697 35.9608 6.9153 36.2623 5.35719 35.1408C3.90615 34.1012 3.53411 29.9378 4.48867 25.5413C5.78019 19.6087 12.8207 12.8561 17.1913 12.0155C19.1106 11.6353 21.6895 12.938 19.0328 14.135Z" fill="black"/>
<path fill-rule="evenodd" clip-rule="evenodd" d="M14.5395 3.64753C4.56001 10.0756 9.17569 10.0836 11.9067 8.50855L13.5987 7.53267C20.3168 17.0678 22.4124 21.0016 27.3806 30.0428C22.4084 32.9105 21.3966 33.4545 23.2078 34.3284C24.1645 34.7853 24.4426 34.6843 30.5811 31.1637C36.4758 27.8035 36.586 27.7202 36.2945 27.2158C35.6258 26.0588 34.4375 26.0914 32.0175 27.3487L30.1108 28.3297C28.5419 25.6151 21.6336 13.5591 20.0158 11.3079C15.6482 5.22322 15.7794 5.99807 18.6559 4.16106C23.5355 1.03033 20.2007 0.362646 18.7009 1.08916C17.8675 1.53031 16.6168 2.31101 14.5395 3.64753Z" fill="black"/>
</svg>
