<svg width="48" height="48" viewBox="0 0 48 48" fill="none" xmlns="http://www.w3.org/2000/svg">
<g clip-path="url(#clip0_22_543)">
<mask id="mask0_22_543" style="mask-type:luminance" maskUnits="userSpaceOnUse" x="0" y="0" width="48" height="48">
<path d="M48 0H0V48H48V0Z" fill="white"/>
</mask>
<g mask="url(#mask0_22_543)">
<path d="M32.7662 19.6875C34.8992 23.7832 36.3827 31.8733 35.2952 33.2421C32.8067 36.375 20.4336 37.3125 16.0971 34.5292C13.1998 32.6698 13.0159 23.0614 14.5566 20.487M34.3151 22.8161C34.8587 22.6221 35.9106 22.104 36.1549 23.1557C36.3992 24.2074 36.3954 24.8618 36.1549 25.9508C36.0238 26.544 35.7167 26.7214 35.3479 26.7214" stroke="black" stroke-width="0.5625" stroke-linecap="round" stroke-linejoin="round"/>
<path d="M13.5306 23.3135C12.1044 22.8655 11.2644 23.6675 11.7756 25.4392C12.2599 27.1173 13.0976 27.4705 13.5306 27.3757" stroke="black" stroke-width="0.5625" stroke-linecap="round" stroke-linejoin="round"/>
<path d="M25.5487 23.8125C25.4006 24.8134 25.3401 26.8751 25.6213 28.0001C26.2807 30.6377 25.3314 31.2758 25.0052 31.2758C24.0184 31.2758 23.7861 30.3947 23.5596 27.9024C23.2783 24.8087 23.2704 24.8366 22.875 23.9698" stroke="black" stroke-width="0.5625" stroke-linecap="round" stroke-linejoin="round"/>
<path d="M20.9267 34.0834C21.8094 34.8484 23.4504 35.2973 25.1404 35.1086C27.0581 34.8945 28.1946 33.8775 28.6757 33.1024M20.25 34.602C20.5463 34.4128 21.1519 33.9004 21.2032 33.3626M28.3378 32.625C28.5264 32.9216 29.0381 33.5278 29.5757 33.5799" stroke="black" stroke-width="0.5625" stroke-linecap="round" stroke-linejoin="round"/>
<path d="M21.2597 5.05713C19.2452 6.02482 15.1584 9.07319 14.9284 13.5246C14.6406 19.0887 13.6961 21.5097 14.7034 22.4774C15.7104 23.4451 18.8003 20.4805 23.6927 21.3273C28.5851 22.1738 32.1139 22.4159 32.8335 21.3273C33.5529 20.2384 33.3465 11.5891 32.1954 9.29088C31.0442 6.9925 27.8312 5.17825 24.9534 5.05713" stroke="#FFC700" stroke-width="0.5625" stroke-linecap="round" stroke-linejoin="round"/>
<path d="M14.4309 19.7535C19.2604 19.0408 29.7474 18.0427 33.0589 19.7535M21.9789 5.5003C20.7319 6.92511 18.0938 10.3121 17.5183 12.4614C16.9427 14.6109 16.9607 18.0084 16.9127 19.1482M23.0269 5.40674C21.7798 6.83174 21.4232 9.85574 20.8476 12.0051C20.2719 14.1546 20.3509 17.6151 20.3029 18.7547" stroke="#FFC700" stroke-width="0.5625" stroke-linecap="round" stroke-linejoin="round"/>
<path d="M24.8286 5.13677C26.6586 6.05177 27.2376 9.82633 27.5063 12.0353C27.7787 14.275 28.0386 17.7056 27.9906 18.8455M23.8744 5.22508C24.6896 5.67283 24.4549 7.86377 24.1164 11.218C23.7834 14.5172 23.8744 16.6963 24.3889 18.7545M20.6228 2.33927C21.1658 2.61077 22.2069 3.58389 22.6596 4.03633C22.2823 3.28202 21.8901 0.0988318 23.3383 0.189394C24.7866 0.279957 24.1699 2.74202 23.8305 3.72264C24.2453 3.27002 25.488 1.97702 25.9406 2.33927C26.5063 2.79189 26.2843 4.63764 24.2048 5.05464C23.4281 5.21046 22.6596 5.50727 21.528 5.05464C20.3964 4.60221 19.6044 4.03652 19.1518 3.24433C18.6994 2.45233 19.944 1.99971 20.6228 2.33927Z" stroke="#FFC700" stroke-width="0.5625" stroke-linecap="round" stroke-linejoin="round"/>
<path d="M19.5086 25.9889C19.1679 25.66 19.5908 25.1673 19.9629 25.3535C20.4283 25.5862 20.6023 26.1635 20.1953 26.5705C19.7882 26.9778 18.8514 26.7172 18.7933 25.7283C18.7352 24.7392 20.0046 24.0083 20.6443 25.1718C21.2843 26.3352 21.0799 27.385 19.6791 27.385C18.7251 27.385 18.3103 26.7239 18.2141 26.0917C18.021 24.8255 18.6658 23.5295 20.031 23.8432C20.8716 24.0363 21.8409 24.5849 21.6664 26.3302C21.492 28.0752 20.5541 28.2494 19.3614 28.045C17.9241 27.7987 17.5329 26.5118 17.9987 25.0582M28.0247 25.9889C27.684 25.66 28.1068 25.1673 28.479 25.3535C28.9442 25.5862 29.1184 26.1635 28.7113 26.5705C28.3043 26.9778 27.3675 26.7172 27.3094 25.7283C27.2513 24.7392 28.5206 24.0083 29.1604 25.1718C29.8003 26.3352 29.5959 27.385 28.1951 27.385C27.2411 27.385 26.8264 26.7239 26.7302 26.0917C26.5371 24.8255 27.1819 23.5295 28.5471 23.8432C29.3876 24.0363 30.357 24.5849 30.1824 26.3302C30.0081 28.0752 29.0702 28.2494 27.8775 28.045C26.4401 27.7987 26.049 26.5118 26.5148 25.0582M18.8949 22.2899C19.4734 22.6983 20.5523 22.7847 21.1665 22.4774M26.8508 22.4607C27.5282 22.6675 28.5797 22.412 29.067 21.9282" stroke="black" stroke-width="0.5625" stroke-linecap="round" stroke-linejoin="round"/>
</g>
</g>
<defs>
<clipPath id="clip0_22_543">
<rect width="48" height="48" fill="white"/>
</clipPath>
</defs>
</svg>
