<svg width="48" height="48" viewBox="0 0 48 48" fill="none" xmlns="http://www.w3.org/2000/svg">
<g clip-path="url(#clip0_22_458)">
<mask id="mask0_22_458" style="mask-type:luminance" maskUnits="userSpaceOnUse" x="0" y="0" width="48" height="48">
<path d="M48 0H0V48H48V0Z" fill="white"/>
</mask>
<g mask="url(#mask0_22_458)">
<path d="M34.7777 20.3711C35.1973 20.3711 36.4601 20.5121 36.1005 22.5922C35.9426 23.5053 35.7917 24.0033 35.4562 24.627C35.1724 25.1546 34.7664 25.5909 34.2517 25.3438M13.3627 20.9703C12.6478 20.9703 11.5106 21.9656 11.8869 23.9488C12.2906 26.0771 13.1025 26.2532 13.5279 26.1258" stroke="black" stroke-width="0.5625" stroke-linecap="round" stroke-linejoin="round"/>
<path d="M15.1031 17.808C14.3287 18.7264 14.0233 18.7264 13.2772 22.6264C12.5314 26.5264 20.5372 39.7511 23.9966 39.7511C26.6171 39.7511 28.5291 37.4229 30.3426 34.4004C31.5973 32.3091 35.2181 22.9123 34.7241 20.6619C34.2302 18.4119 34.0601 17.5556 33.0502 16.875" stroke="black" stroke-width="0.5625" stroke-linecap="round" stroke-linejoin="round"/>
<path d="M26.2987 23.25C26.1506 24.2509 26.0901 26.3126 26.3713 27.4376C27.0307 30.0752 26.0814 30.7133 25.7552 30.7133C24.7684 30.7133 24.5361 29.8322 24.3096 27.3399C24.0283 24.2462 24.0204 24.2741 23.625 23.4073" stroke="black" stroke-width="0.5625" stroke-linecap="round" stroke-linejoin="round"/>
<path d="M22.3421 37.3971C22.2622 37.5036 21.7987 36.0664 21.5771 35.3346L22.9744 35.5673C22.7968 36.1329 22.422 37.2904 22.3421 37.3971ZM27.4474 37.1989C27.3236 37.2476 26.8732 36.0664 26.6516 35.3344L27.765 34.9688C27.5876 35.5342 27.6574 37.1164 27.4474 37.1991V37.1989Z" stroke="black" stroke-width="0.5625" stroke-linecap="round" stroke-linejoin="round"/>
<path d="M20.625 34.2491C21.189 35.4111 22.9433 35.7064 25.1363 35.4617C27.0525 35.2477 28.1822 34.6359 28.7368 33.9375" stroke="black" stroke-width="0.5625" stroke-linecap="round" stroke-linejoin="round"/>
<path d="M12.843 23.1103C12.4104 22.1979 11.7259 21.8316 11.4375 21.7626L13.5997 21.2441L11.4375 19.7927L13.9363 20.1992L11.7906 18.2584L14.2674 19.1211L11.6728 16.89L14.8078 18.1341L11.8894 15.2312L15.2407 16.89C15.2407 16.89 11.673 12.7431 11.8894 12.4704C12.1056 12.1976 15.7813 15.2312 15.7813 15.2312C15.7813 15.2312 13.0783 11.8101 13.2947 11.6027C13.5109 11.3953 16.3217 14.1896 16.3217 14.1896C16.3217 14.1896 13.8351 10.3586 14.2676 10.2549C14.7 10.1513 17.2946 13.5726 17.2946 13.5726C17.2946 13.5726 15.0244 8.49262 15.4567 8.49262C15.8893 8.49262 18.1596 12.7432 18.1596 12.7432L17.1157 8.20875L19.6731 12.4704C19.6731 12.4704 18.4837 6.9375 18.8081 6.9375C19.1325 6.9375 21.2696 12.4704 21.2696 12.4704C21.2696 12.4704 21.2541 7.48106 21.7069 7.48106C22.1595 7.48106 22.9163 12.7431 22.9163 12.7431C22.9163 12.7431 23.7936 7.48106 24.1117 7.48106C24.4299 7.48106 25.3091 12.9255 25.7464 12.9255C25.7464 12.9255 26.013 7.7235 26.3662 7.74525C26.7193 7.76681 26.7306 13.5427 27.0949 13.5427C27.0949 13.5427 27.5979 8.66138 27.9694 8.68069C28.341 8.7 28.6654 14.6531 28.6654 14.6531C28.6654 14.6531 29.982 10.2549 30.3064 10.3586C30.6306 10.4623 29.8691 15.0238 30.3064 15.0238C30.3064 15.0238 31.4955 10.9504 31.8199 11.121C32.1441 11.2916 31.2793 15.5422 31.2793 15.5422C31.2793 15.5422 32.7928 11.8101 33.1172 12.0173C33.4414 12.2248 32.1441 16.2679 32.1441 16.2679C32.1441 16.2679 33.9819 13.2615 34.1981 13.5726C34.4145 13.8834 33.4414 17.0974 33.4414 17.0974C33.4414 17.0974 34.5225 16.2679 34.7387 16.5789C34.9549 16.89 34.1981 19.3781 34.1981 19.3781L35.2793 18.756C35.0271 19.3089 34.5658 20.6428 34.7387 21.5552" stroke="#699BF7" stroke-width="0.5625" stroke-linecap="round" stroke-linejoin="round"/>
<path d="M19.8641 22.4444C21.195 21.947 22.3463 23.4215 22.3463 24.4829C22.3463 25.7636 21.3563 26.8336 20.4163 26.8336C19.4768 26.8336 18.5625 25.7636 18.5625 24.4831C18.5625 23.4215 19.3163 22.6467 20.0306 22.3715M28.0149 21.6042C29.2457 21.1068 30.0831 22.604 30.0831 23.6654C30.0831 24.9461 29.3578 26.0161 28.4888 26.0161C27.6197 26.0161 26.7975 25.1382 26.7975 23.7341C26.7975 22.3299 27.4714 21.8291 28.1319 21.554" stroke="black" stroke-width="0.5625" stroke-linecap="round" stroke-linejoin="round"/>
<path d="M18.7929 20.8595C19.3142 20.2732 20.679 19.3938 21.9688 20.5665M25.911 20.082C26.7253 19.3003 28.6179 18.1376 29.6732 19.74" stroke="black" stroke-width="0.5625" stroke-linecap="round" stroke-linejoin="round"/>
</g>
</g>
<defs>
<clipPath id="clip0_22_458">
<rect width="48" height="48" fill="white"/>
</clipPath>
</defs>
</svg>
