<svg width="48" height="48" viewBox="0 0 48 48" fill="none" xmlns="http://www.w3.org/2000/svg">
<g clip-path="url(#clip0_22_572)">
<g clip-path="url(#clip1_22_572)">
<mask id="mask0_22_572" style="mask-type:luminance" maskUnits="userSpaceOnUse" x="0" y="0" width="48" height="48">
<path d="M48 0H0V48H48V0Z" fill="white"/>
</mask>
<g mask="url(#mask0_22_572)">
<path d="M34.2821 18.4009C34.7154 18.3324 35.1971 18.3319 35.5431 18.9332C35.8888 19.5347 35.5695 21.0058 35.1126 21.7676C34.7252 22.413 34.3305 22.5527 34.1059 22.596M13.8636 18.4984C13.0686 18.1346 11.7913 18.7296 12.3064 21.2357C12.5085 22.2193 13.1664 22.8105 13.6339 22.7436" stroke="black" stroke-width="0.5625" stroke-linecap="round" stroke-linejoin="round"/>
<path d="M15.1718 14.8901C12.4341 20.3312 14.0469 30.3924 17.1668 36.3146C20.2868 42.2368 23.2526 43.2163 24.7568 43.0069C28.2204 42.5246 31.8476 36.2166 33.4328 25.7064C34.4951 18.6621 34.4798 15.5496 33.2048 13.6875" stroke="black" stroke-width="0.5625" stroke-linecap="round" stroke-linejoin="round"/>
<path d="M22.3125 24.5147C22.9691 24.5147 23.7593 25.5812 23.8333 27.2801C23.9539 30.0371 23.0529 30.9097 23.8333 32.337C24.3448 33.2724 27.1633 33.2244 27.9302 31.6744C28.5336 30.4552 27.381 29.4159 26.694 27.7849C26.0387 26.2301 25.6237 25.2742 26.3089 24.375" stroke="black" stroke-width="0.5625" stroke-linecap="round" stroke-linejoin="round"/>
<path d="M20.7392 38.3959C21.6219 39.1609 23.2629 39.6098 24.9529 39.4211C26.8706 39.207 28.0071 38.19 28.4882 37.4149M20.0625 38.9145C20.3588 38.7253 20.9644 38.2129 21.0157 37.6751M28.1503 36.9375C28.3389 37.2341 28.8506 37.8403 29.3882 37.8924" stroke="black" stroke-width="0.5625" stroke-linecap="round" stroke-linejoin="round"/>
<path d="M15.3562 12.5696L16.7871 14.3087L15.3564 11.2446L17.7004 14.5847L15.6135 9.94725L19.2529 14.8609L17.9743 11.2446C19.05 12.7997 21.1584 15.7772 20.988 15.2473C20.8176 14.7173 19.9226 12.8364 19.4964 11.9623L22.7535 15.5233L21.5662 12.1832L24.1537 15.2473L23.6816 12.8042L25.554 14.8609L25.1278 11.9623L27.0152 14.8609L26.0715 11.4653L28.5373 14.5847L27.6849 10.9961L29.9376 14.3087L28.9329 10.6374L30.9726 14.0603L29.9376 10.3613L32.0074 13.7289L30.9726 9.94707L33.0424 13.3149L32.0074 9.58838" stroke="black" stroke-width="1.125" stroke-linecap="round" stroke-linejoin="round"/>
<path d="M10.128 6.48506C14.4174 4.38581 23.4347 0.1875 25.1869 0.1875C26.9393 0.1875 34.8613 3.10819 38.6033 4.56844L23.2703 12.7824L10.8433 6.13687" stroke="black" stroke-width="0.5625" stroke-linecap="round" stroke-linejoin="round"/>
<path d="M36.7101 4.89851L35.9233 3.92051L35.3334 5.98019L34.7434 3.40244L33.6617 6.86519L33.2683 2.79795L32.0392 7.9467C32.1866 6.60476 32.3932 3.61451 32.0392 2.39107C31.5967 0.861445 31.3884 8.17282 30.9459 6.86519C30.5919 5.81894 30.3675 2.7252 30.2201 1.75188V8.49663L28.8926 1.50288V9.22488L27.8601 1.16163L27.2707 9.79151L26.2376 0.817383L25.5 11.3459L24.7626 0.817758L24.3141 11.977L23.1399 1.16182L22.6807 11.9768L21.8227 1.50288L20.8363 11.3459L20.3383 2.02094L19.4323 10.4498L18.7798 2.79795L18.1116 9.79169L17.7407 3.40244L16.7332 9.22488L16.4049 3.92051C16.2069 5.38826 15.7369 8.35844 15.4401 8.49663C15.0688 8.66913 15.1086 6.29013 15.1828 4.73613C15.2422 3.49263 14.6237 5.81988 14.1784 7.28782L13.6016 5.24238L13.1591 6.86501L12.3726 5.98001" stroke="black" stroke-width="1.125" stroke-linecap="round" stroke-linejoin="round"/>
<path d="M14.8333 8.52614V13.6873C14.8333 14.2935 21.3128 15.9601 22.7852 15.9601C23.9634 15.9601 30.3446 14.445 33.3879 13.6873V7.63702M10.458 6.75783L9.375 14.5361M10.5564 6.62958V14.1421M10.6819 6.62939L11.3441 13.7482" stroke="black" stroke-width="0.5625" stroke-linecap="round" stroke-linejoin="round"/>
<path d="M24.5741 34.106C21.8156 34.5001 15.9431 35.6165 13.6875 36.2714M36.9034 33.6421C34.1447 34.0362 28.1859 33.8095 25.9326 33.9513" stroke="black" stroke-width="0.5625" stroke-linecap="round" stroke-linejoin="round"/>
<path d="M24.4312 34.1745C21.6722 34.5686 17.3175 36.3649 14.7799 36.6469M36.2723 34.3506C33.5138 34.7445 28.6751 34.0543 26.1772 34.0543M24.5741 33.9765C21.8156 34.3706 16.0813 35.0419 13.7826 35.3888M37.1222 32.625C34.3635 33.0191 28.2186 33.4498 25.9196 33.7969" stroke="black" stroke-width="0.5625" stroke-linecap="round" stroke-linejoin="round"/>
<path d="M20.1268 20.415C19.6802 20.4386 18.7494 20.6831 18.5991 21.4725C18.411 22.4597 18.9986 22.8593 19.2103 22.9532C19.4216 23.0473 20.7613 23.3057 20.9257 22.3892C21.0902 21.4727 20.6437 20.838 20.3852 20.7205C20.1268 20.6031 19.3277 21.0261 19.2101 21.4727C19.0926 21.9191 18.7166 22.1072 19.2101 22.3892C19.7036 22.6712 20.0561 23.0473 20.3852 22.4831C20.7142 21.9191 20.6437 21.2376 20.3852 21.1907C20.1268 21.1436 19.5392 21.3081 19.5392 21.6606C19.5392 22.0131 19.6097 22.5773 19.7976 22.3892C19.9481 22.2388 20.0797 21.8408 20.1266 21.6606M29.3486 20.0537C28.902 20.0773 27.9714 20.3218 27.8211 21.1112C27.633 22.0984 28.2204 22.498 28.4321 22.5919C28.6436 22.686 29.9831 22.9444 30.1477 22.0279C30.3122 21.1114 29.8656 20.4767 29.6072 20.3591C29.3486 20.2418 28.5497 20.6648 28.4321 21.1114C28.3146 21.5578 27.9386 21.7459 28.4321 22.0279C28.9256 22.3099 29.2781 22.686 29.6072 22.1218C29.9361 21.5578 29.8656 20.8763 29.6072 20.8294C29.3486 20.7823 28.761 20.9468 28.761 21.2993C28.761 21.6518 28.8315 22.216 29.0197 22.0279C29.1699 21.8775 29.3016 21.4795 29.3486 21.2993" stroke="black" stroke-width="0.5625" stroke-linecap="round" stroke-linejoin="round"/>
<path d="M19.5313 21.4909C19.4582 21.5056 19.3046 21.5243 19.3558 21.652C19.407 21.7795 19.6046 21.7512 19.6521 21.652C19.6997 21.5528 19.6046 21.3301 19.6046 21.3301M28.7531 21.1296C28.68 21.1443 28.5266 21.163 28.5776 21.2907C28.6288 21.4182 28.8264 21.3899 28.8739 21.2907C28.9215 21.1915 28.8264 20.9688 28.8264 20.9688" stroke="#373F41" stroke-width="0.5625" stroke-linecap="round" stroke-linejoin="round"/>
<path d="M18.6572 19.0847C18.858 18.8484 19.3661 18.4466 19.7916 18.7303M28.1126 18.369C28.3134 18.1326 28.9144 18.1215 29.0137 18.369" stroke="black" stroke-width="0.5625" stroke-linecap="round" stroke-linejoin="round"/>
</g>
</g>
</g>
<defs>
<clipPath id="clip0_22_572">
<rect width="48" height="48" fill="white"/>
</clipPath>
<clipPath id="clip1_22_572">
<rect width="48" height="48" fill="white"/>
</clipPath>
</defs>
</svg>
