<svg width="48" height="48" viewBox="0 0 48 48" fill="none" xmlns="http://www.w3.org/2000/svg">
<g clip-path="url(#clip0_87_963)">
<g clip-path="url(#clip1_87_963)">
<mask id="mask0_87_963" style="mask-type:luminance" maskUnits="userSpaceOnUse" x="0" y="0" width="48" height="48">
<path d="M48 0H0V48H48V0Z" fill="white"/>
</mask>
<g mask="url(#mask0_87_963)">
<path d="M32.7661 19.6875C34.8991 23.7832 36.3826 31.8733 35.2951 33.2421C32.8066 36.375 20.4335 37.3125 16.097 34.5292C13.1997 32.6698 13.0158 23.0614 14.5565 20.487M34.3151 22.8161C34.8586 22.6221 35.9105 22.104 36.1548 23.1557C36.3991 24.2074 36.3954 24.8618 36.1548 25.9508C36.0237 26.544 35.7166 26.7214 35.3478 26.7214" stroke="black" stroke-width="0.5625" stroke-linecap="round" stroke-linejoin="round"/>
<path d="M13.5305 23.3135C12.1044 22.8655 11.2644 23.6675 11.7755 25.4392C12.2599 27.1173 13.0976 27.4705 13.5305 27.3757" stroke="black" stroke-width="0.5625" stroke-linecap="round" stroke-linejoin="round"/>
<path d="M21.375 23.3897C22.0316 23.3897 22.8218 24.4562 22.8958 26.1551C23.0164 28.9121 22.1154 29.7847 22.8958 31.212C23.4073 32.1474 26.2258 32.0994 26.9927 30.5494C27.5961 29.3302 26.4435 28.2909 25.7565 26.6599C25.1012 25.1051 24.6862 24.1492 25.3714 23.25" stroke="black" stroke-width="0.5625" stroke-linecap="round" stroke-linejoin="round"/>
<path d="M23.9762 36.699C23.8644 37.449 23.8125 37.7852 23.8125 37.7852M24.4119 36.6643C24.5259 37.2006 24.4457 37.5023 24.6613 37.8662M25.2137 37.7852C25.2137 37.7852 25.0162 37.2463 25.0162 36.6429M25.6494 36.5625C25.7661 37.3136 26.0085 37.6774 26.0085 37.6774" stroke="black" stroke-width="0.5625" stroke-linecap="round" stroke-linejoin="round"/>
<path d="M19.125 34.2719C19.125 34.2719 20.1915 33.7501 20.4581 32.8553M20.6574 33.1819C20.6998 33.34 19.3551 34.9261 19.3551 34.9261M21.0411 33.1047C20.9383 33.8905 20.0642 35.0404 20.0642 35.0404M20.5534 35.2561C20.5534 35.2561 21.5415 34.3487 21.63 33.3181M22.0442 33.2575C22.0442 33.9137 21.7313 35.3566 21.7313 35.3566M26.9276 32.947L26.9274 35.2525M21.8878 35.2832C21.8878 35.2832 22.6674 34.3026 22.6674 33.4926M27.5908 34.9212C27.5908 34.9212 27.0223 33.7441 27.0223 32.9337M23.1272 33.4204C23.1831 33.8627 22.5806 35.2416 22.5806 35.2416M28.7848 32.7893C28.8407 33.2316 29.8001 34.3589 29.8001 34.3589M27.5906 33.0091C27.6467 33.4516 28.5015 34.8458 28.5015 34.8458M23.5658 33.3856C23.454 34.1356 23.3308 35.3768 23.3308 35.3768M27.9043 32.8746L29.0987 34.5946M24.0015 33.3509C24.1155 33.8871 24.1453 34.9688 24.6932 35.3363M29.3409 32.86C29.6301 33.3062 30.1746 33.9737 30.8863 34.1494M24.7562 33.1812C24.7562 33.4315 24.4217 34.2861 24.9354 35.2684M25.8608 35.3372C25.8608 35.3372 24.9356 34.1873 24.9356 33.1812M25.398 33.1144C25.398 33.8329 26.5549 35.3566 26.5549 35.3566M26.7276 35.2461C26.6038 34.8722 26.0046 33.5125 26.0719 32.9097" stroke="black" stroke-width="0.5625" stroke-linecap="round" stroke-linejoin="round"/>
<path d="M13.3213 12.5096C12.4841 15.5169 13.5856 16.8259 13.5856 17.4418C13.5856 18.0577 14.3786 13.8081 14.8001 11.4615L14.2454 18.9816L16.0858 10.8879L15.4554 19.8615L17.2702 10.5122C17.0684 14.1052 16.6762 21.0934 16.7203 20.3016C16.7641 19.5096 17.9488 13.3048 18.4987 10.0967L18.0043 20.3016L19.7446 10.5122L19.4876 20.3016L21.1094 10.5122L20.735 20.7966L22.4949 10.5122L22.217 20.7966L23.6411 11.0064V20.7966L25.0796 11.6394V20.7966L26.3996 12.1071C26.2529 15.4069 26.3116 21.5445 26.3996 20.7966C26.4875 20.0486 27.2428 15.0945 27.6095 12.5096L27.4582 20.7966L28.8194 13.0419L28.6681 20.7966L29.9193 13.482V20.1836L31.0381 13.8546L30.7993 20.1836L31.9252 14.8039L32.0641 19.8615L32.6401 14.8039L32.8633 18.7882L33.6988 15.5814V18.9816" stroke="#F24E1E" stroke-width="1.125" stroke-linecap="round" stroke-linejoin="round"/>
<path d="M32.8439 19.9959C29.6413 21.8439 16.2496 21.7181 14.0799 19.2781C10.7362 15.5186 12.2334 12.0463 14.4159 11.1455C16.5984 10.2448 18.3809 8.5134 25.2271 11.1455C32.0735 13.7775 35.1974 14.6439 34.61 18.3886C34.0224 22.1332 30.1201 23.2001 25.8883 22.3303C21.6564 21.4605 16.1203 24.2272 14.7029 21.7181C14.5117 21.4151 14.1862 20.6465 14.4159 19.9959" stroke="black" stroke-width="0.5625" stroke-linecap="round" stroke-linejoin="round"/>
<path d="M33.9246 20.1448C34.6761 18.4963 36.8016 14.8824 39.2929 13.6138" stroke="#F24E1E" stroke-width="0.5625" stroke-linecap="round" stroke-linejoin="round"/>
<path d="M35.0602 18.8443C35.8512 18.7354 37.6942 18.2293 38.738 17.0765C40.0428 15.6354 41.3547 14.117 41.0049 12.8353C40.655 11.5534 38.7016 13.0213 37.7724 12.9352C36.8433 12.8492 33.9768 17.6675 34.3196 19.0267" stroke="#F24E1E" stroke-width="0.5625" stroke-linecap="round" stroke-linejoin="round"/>
<path d="M19.9732 28.3078C19.8373 28.2075 19.0104 27.8726 18.5786 27.1528C18.1468 26.4333 18.1181 25.7137 18.5786 25.397C18.888 25.1844 19.5437 25.5249 19.9732 25.8157M20.1418 25.6908C20.4214 25.3822 20.9143 25.1223 21.3997 25.397C21.7254 25.5813 21.6875 26.7211 21.3997 27.153C21.1685 27.4996 20.4257 28.0792 20.1418 28.2645M27.879 25.5472C27.4665 25.1538 26.5434 24.5398 26.1519 25.2307C25.6625 26.0941 27.1976 27.6633 28.0622 28.0218M28.2705 28.1263C28.6925 27.8096 29.5774 27.1188 29.7386 26.8884C29.94 26.6006 30.2567 25.3916 29.7386 24.9022C29.2204 24.4128 28.1265 25.1038 28.1265 25.881" stroke="#F24E1E" stroke-width="0.5625" stroke-linecap="round" stroke-linejoin="round"/>
<path d="M18.1875 22.7385C18.3069 22.4723 18.7382 21.9623 19.5094 22.0502C20.4729 22.1603 20.6657 22.3257 20.886 22.7385M26.8419 22.3525C26.9522 22.0405 27.4147 21.4493 28.3839 21.5815C29.3533 21.7137 29.7058 22.2608 29.7607 22.5177" stroke="black" stroke-width="0.5625" stroke-linecap="round" stroke-linejoin="round"/>
</g>
</g>
</g>
<defs>
<clipPath id="clip0_87_963">
<rect width="48" height="48" fill="white"/>
</clipPath>
<clipPath id="clip1_87_963">
<rect width="48" height="48" fill="white"/>
</clipPath>
</defs>
</svg>
