<svg width="48" height="48" viewBox="0 0 48 48" fill="none" xmlns="http://www.w3.org/2000/svg">
<g clip-path="url(#clip0_22_484)">
<mask id="mask0_22_484" style="mask-type:luminance" maskUnits="userSpaceOnUse" x="0" y="0" width="48" height="48">
<path d="M48 0H0V48H48V0Z" fill="white"/>
</mask>
<g mask="url(#mask0_22_484)">
<path d="M14.7473 21.5483C13.6058 23.1986 12.729 28.0016 14.6423 31.1107C16.8144 35.3357 21.2709 36.5398 25.8227 36.1131C30.3744 35.6863 33.6152 31.9477 34.3924 28.9783C35.1696 26.0087 34.3924 22.3515 32.8208 20.4375" stroke="black" stroke-width="0.5625" stroke-linecap="round" stroke-linejoin="round"/>
<path d="M33.9788 22.1959C34.4642 21.9795 35.0207 21.8775 35.3664 22.4788C35.7124 23.0801 35.9625 23.8524 35.6764 25.0388C35.4999 25.7706 35.0616 25.9416 34.6928 25.9416M13.6868 23.3681C12.8918 23.0042 11.9749 23.79 12.2316 25.8743C12.4118 27.3379 12.9765 27.6656 13.4441 27.5989" stroke="black" stroke-width="0.5625" stroke-linecap="round" stroke-linejoin="round"/>
<path d="M23.7654 26.4375C24.4791 26.8371 25.8054 28.6596 25.6684 29.6873C25.5791 30.3559 24.0778 30.141 23.25 29.9985" stroke="black" stroke-width="0.5625" stroke-linecap="round" stroke-linejoin="round"/>
<path d="M20.2273 36.8761C20.632 38.5833 20.2105 40.0538 20.4118 40.699M27.804 35.7173C27.804 37.144 27.6641 38.4158 27.6641 39.0537M25.639 41.1829C25.639 41.6558 25.8281 43.0036 25.8281 43.5001M25.1981 43.6728C24.9467 43.069 24.5845 41.0239 24.4226 40.6212M21.1343 35.4057C21.3218 36.1135 20.7986 40.1119 22.2754 43.4341M19.7895 41.7604C19.5019 40.6911 19.3613 38.6014 19.5017 37.5004M27.0038 42.9214C26.7161 41.8521 26.7413 40.9231 26.8819 39.8221M26.2553 40.9889C25.9676 39.9194 26.5219 38.2195 26.6625 37.1185M18.3426 36.3653C17.6545 37.2796 18.3431 39.5215 18.3431 40.6964M29.643 35.5958C30.0328 36.2455 30.379 37.8914 30.379 39.4939M29.0297 36.9961C29.0297 38.3412 28.3903 40.0465 28.3903 40.8019M22.881 41.1582C22.5623 40.6893 21.682 37.4845 22.0645 36.2693M23.7872 40.4877C23.7872 39.9303 23.4223 39.3196 23.2294 38.2913M23.8391 43.2516C23.7015 41.7606 23.55 41.9185 23.55 40.6111M20.2181 43.6163C19.7183 42.2665 19.0213 42.0063 18.7684 41.0667M31.1668 41.5692C31.1668 41.0228 31.3598 40.0266 31.3598 39.6732M21.2723 44.7846C21.1346 43.2936 20.8133 42.6284 20.8133 41.3208M25.2696 41.3121C25.132 39.8211 24.8106 39.1559 24.8106 37.8483M29.9456 42.6556C29.8082 41.1644 29.598 40.9381 29.598 39.6304M23.4023 45.1504C22.8139 43.6909 23.0895 43.2738 22.684 41.8313M24.4313 46.1129C24.4313 45.5172 24.2091 44.5251 23.8982 43.7764M25.285 46.0799C25.3922 45.7473 25.285 45.0143 25.285 44.4951M19.9009 36.4889C20.0081 36.1564 19.9011 35.6461 19.9009 35.1269M18.9377 35.8113C18.7153 35.347 19.1841 35.0373 19.1841 34.5181M22.9622 37.2289V35.6695M26.6963 36.322C26.6963 35.9249 26.6963 35.7619 26.6959 35.2428M28.7485 36.1649C28.7485 35.7676 28.7485 35.3305 28.4719 34.8919M31.2634 37.7511C31.3705 37.4185 31.2636 36.9081 31.2634 36.3889M30.7121 35.7186C30.6452 35.3757 30.3049 34.9808 30.0536 34.5263M26.2095 45.8213C26.3168 45.4887 26.3946 44.7901 26.3946 44.0678M24.1553 38.1679C23.956 37.741 24.0486 36.9289 23.7377 36.1803M25.7048 37.7464C25.7048 37.2955 25.3978 36.7752 25.3978 35.9241M29.0205 43.4341C29.1208 42.9944 28.9373 42.4189 29.1265 41.5891M27.3686 44.8694C27.5816 44.4717 27.5567 43.8683 27.9585 43.1181M22.6067 46.0133C22.5013 45.5294 22.2548 44.6247 21.9437 43.8758M28.167 42.8896C28.2741 42.5571 27.9446 41.302 27.6336 40.5531" stroke="black" stroke-width="0.5625" stroke-linecap="round" stroke-linejoin="round"/>
<path d="M24.756 33.5464C23.3966 33.5464 22.1284 33.3416 21.5625 33.1875C21.7665 33.6726 22.7663 34.7363 24.756 34.7363C26.9944 34.7363 27.8432 33.708 28.1734 33.1875C27.0677 33.5293 26.1154 33.5464 24.756 33.5464Z" stroke="black" stroke-width="0.5625" stroke-linecap="round" stroke-linejoin="round"/>
<path d="M13.5088 13.4471C12.6716 16.4544 13.7732 17.7634 13.7732 18.3793C13.7732 18.9952 14.5661 14.7456 14.9876 12.399L14.433 19.9191L16.2733 11.8254L15.6429 20.799L17.4578 11.4497C17.256 15.0427 16.8638 22.0309 16.9078 21.2391C16.9517 20.4471 18.1363 14.2423 18.6863 11.0342L18.1918 21.2391L19.9322 11.4497L19.6751 21.2391L21.297 11.4497L20.9226 21.7341L22.6824 11.4497L22.4046 21.7341L23.8286 11.9439V21.7341L25.2671 12.5769V21.7341L26.5871 13.0446C26.4405 16.3444 26.4992 22.482 26.5871 21.7341C26.6751 20.9861 27.4303 16.032 27.7971 13.4471L27.6458 21.7341L29.007 13.9794L28.8557 21.7341L30.1069 14.4195V21.1211L31.2257 14.7921L30.9868 21.1211L32.1128 15.7414L32.2517 20.799L32.8277 15.7414L33.0508 19.7257L33.8863 16.5189V19.9191" stroke="#0FA958" stroke-width="1.125" stroke-linecap="round" stroke-linejoin="round"/>
<path d="M33.0315 20.9336C29.8288 22.7816 16.4372 22.6558 14.2674 20.2159C10.9238 16.4563 12.4209 12.984 14.6034 12.0833C16.7859 11.1825 18.5685 9.45114 25.4147 12.0833C32.2611 14.7152 35.385 15.5816 34.7976 19.3264C34.2099 23.071 30.3077 24.1378 26.0758 23.268C21.8439 22.3982 16.3078 25.165 14.8905 22.6558C14.6993 22.3528 14.3738 21.5843 14.6034 20.9336" stroke="black" stroke-width="0.5625" stroke-linecap="round" stroke-linejoin="round"/>
<path d="M34.1121 21.0828C34.8636 19.4343 36.9891 15.8204 39.4804 14.5518" stroke="#0FA958" stroke-width="0.5625" stroke-linecap="round" stroke-linejoin="round"/>
<path d="M35.2478 19.7818C36.0388 19.6729 37.8818 19.1668 38.9256 18.014C40.2304 16.5729 41.5423 15.0545 41.1925 13.7728C40.8426 12.4909 38.8892 13.9588 37.96 13.8727C37.0309 13.7867 34.1644 18.605 34.5071 19.9642" stroke="#0FA958" stroke-width="0.5625" stroke-linecap="round" stroke-linejoin="round"/>
<path d="M24.3866 33.356C21.6281 33.7501 15.7556 34.8665 13.5 35.5214M36.7159 32.8921C33.9572 33.2862 27.9984 33.0595 25.7451 33.2013" stroke="black" stroke-width="0.5625" stroke-linecap="round" stroke-linejoin="round"/>
<path d="M24.2437 33.4245C21.4847 33.8186 17.13 35.6149 14.5924 35.8969M36.0848 33.6006C33.3263 33.9945 28.4876 33.3043 25.9897 33.3043M24.3866 33.2265C21.6281 33.6206 15.8938 34.2919 13.5951 34.6388M36.9347 31.875C34.176 32.2691 28.0311 32.6998 25.7321 33.0469" stroke="black" stroke-width="0.5625" stroke-linecap="round" stroke-linejoin="round"/>
<path d="M19.6961 26.5519C19.3554 26.223 19.7783 25.7303 20.1504 25.9165C20.6158 26.1491 20.7898 26.7265 20.3828 27.1335C19.9757 27.5408 19.0389 27.2801 18.9808 26.2913C18.9227 25.3022 20.1921 24.5713 20.8318 25.7348C21.4718 26.8982 21.2674 27.948 19.8666 27.948C18.9126 27.948 18.4978 27.2869 18.4016 26.6546C18.2085 25.3885 18.8533 24.0925 20.2185 24.4061C21.0591 24.5993 22.0284 25.1479 21.8539 26.8931C21.6795 28.6382 20.7416 28.8124 19.5489 28.608C18.1116 28.3616 17.7204 27.0748 18.1862 25.6211M28.2122 26.5519C27.8715 26.223 28.2943 25.7303 28.6665 25.9165C29.1317 26.1491 29.3059 26.7265 28.8988 27.1335C28.4918 27.5408 27.555 27.2801 27.4969 26.2913C27.4388 25.3022 28.7081 24.5713 29.3479 25.7348C29.9878 26.8982 29.7834 27.948 28.3826 27.948C27.4286 27.948 27.0139 27.2869 26.9177 26.6546C26.7246 25.3885 27.3694 24.0925 28.7346 24.4061C29.5751 24.5993 30.5445 25.1479 30.3699 26.8931C30.1956 28.6382 29.2577 28.8124 28.065 28.608C26.6276 28.3616 26.2365 27.0748 26.7023 25.6211M19.0824 22.8529C19.6609 23.2613 20.7398 23.3477 21.354 23.0404M27.0383 23.0237C27.7157 23.2305 28.7672 22.975 29.2545 22.4912" stroke="black" stroke-width="0.5625" stroke-linecap="round" stroke-linejoin="round"/>
</g>
</g>
<defs>
<clipPath id="clip0_22_484">
<rect width="48" height="48" fill="white"/>
</clipPath>
</defs>
</svg>
