<svg width="48" height="48" viewBox="0 0 48 48" fill="none" xmlns="http://www.w3.org/2000/svg">
<g clip-path="url(#clip0_22_389)">
<g clip-path="url(#clip1_22_389)">
<mask id="mask0_22_389" style="mask-type:luminance" maskUnits="userSpaceOnUse" x="0" y="0" width="48" height="48">
<path d="M48 0H0V48H48V0Z" fill="white"/>
</mask>
<g mask="url(#mask0_22_389)">
<path d="M34.7777 20.3711C35.1973 20.3711 36.4601 20.5121 36.1005 22.5922C35.9426 23.5053 35.7917 24.0033 35.4562 24.627C35.1724 25.1546 34.7664 25.5909 34.2517 25.3438M13.3627 20.9703C12.6478 20.9703 11.5106 21.9656 11.8869 23.9488C12.2906 26.0771 13.1025 26.2532 13.5279 26.1258" stroke="black" stroke-width="0.5625" stroke-linecap="round" stroke-linejoin="round"/>
<path d="M15.1031 17.808C14.3287 18.7264 14.0233 18.7264 13.2772 22.6264C12.5313 26.5264 20.5372 39.7511 23.9966 39.7511C26.6171 39.7511 28.529 37.4229 30.3425 34.4004C31.5973 32.3091 35.2181 22.9123 34.724 20.6619C34.2302 18.4119 34.0601 17.5556 33.0502 16.875" stroke="black" stroke-width="0.5625" stroke-linecap="round" stroke-linejoin="round"/>
<path d="M25.8259 24.1875C26.7476 24.9311 28.0646 28.4878 26.9453 29.6212C25.8259 30.7549 25.3181 28.7483 24.3566 28.7483C23.3953 28.7483 22.6628 29.8579 22.7605 28.5491C22.8385 27.5023 23.517 27.5181 23.6471 27.4686" stroke="black" stroke-width="0.5625" stroke-linecap="round" stroke-linejoin="round"/>
<path d="M26.4058 35.3324C24.8899 35.6 22.5535 35.5014 22.1974 35.7689C21.5666 36.4724 25.2396 36.0249 26.0346 35.9311C27.7005 35.7346 28.2467 35.0075 26.4058 35.3324Z" stroke="black" stroke-width="0.5625" stroke-linecap="round" stroke-linejoin="round"/>
<path d="M15.6562 17.9681C12.0938 22.1868 16.6875 36.8118 14.3438 42.7181C13.5394 44.745 10.5 46.2806 8.0625 45.8118M27 10.1868C28.6875 8.5931 31.5188 8.83685 33.4688 10.1868C35.9062 11.8743 38.3438 14.6868 39.375 30.1556C40.4062 45.6244 44.0625 45.6243 45.6562 45.3431" stroke="black" stroke-width="0.5625" stroke-linecap="round" stroke-linejoin="round"/>
<path d="M26.9062 12.3433C26.625 13.0933 26.5312 14.0981 22.7812 14.5933C17.3438 15.3114 13.3125 14.0308 11.7188 20.4058C10.125 26.7808 11.6505 36.812 10.2188 40.7495C8.787 44.687 6 44.7808 4.40625 43.8433" stroke="black" stroke-width="0.5625" stroke-linecap="round" stroke-linejoin="round"/>
<path d="M27.6562 12.2495C27.6562 14.1245 26.3438 15.2495 23.625 15.437C19.7496 15.7044 17.5312 14.2183 14.0625 18.7183C11.5539 21.9727 14.5312 32.8745 12.5625 39.2495C11.6241 42.2881 8.625 42.812 7.875 42.3433M26.4375 11.4995C25.7812 12.1558 25.5938 12.662 21.8438 13.187C17.1562 13.8433 14.1562 13.937 12.375 16.3745" stroke="black" stroke-width="0.5625" stroke-linecap="round" stroke-linejoin="round"/>
<path d="M26.5312 10.7495C26.1249 11.2496 25.2562 11.6495 22.4062 11.8745C18.8438 12.1558 14.9062 12.7183 12.8438 15.062" stroke="black" stroke-width="0.5625" stroke-linecap="round" stroke-linejoin="round"/>
<path d="M26.625 9.43696C25.6251 8.87446 22.125 8.21821 18.1875 9.81196C13.5694 11.6813 9.31069 14.687 7.96875 23.2182C6.65625 31.562 6.55087 34.7495 6.09375 38.4057C5.9415 39.6245 5.0625 40.0932 4.21875 40.0932" stroke="black" stroke-width="0.5625" stroke-linecap="round" stroke-linejoin="round"/>
<path d="M26.0625 10.0933C22.875 9.71833 20.625 10.0933 17.3438 11.7808C14.4352 13.2767 11.25 15.6246 10.2188 23.406C9.1875 31.1873 9.5625 35.5935 8.8125 38.406C8.20087 40.6993 6.5625 40.9373 5.625 40.9373" stroke="black" stroke-width="0.5625" stroke-linecap="round" stroke-linejoin="round"/>
<path d="M3.75 42.7184C4.62506 42.9996 6.67875 42.7641 7.21875 39.3434C8.0625 33.9996 8.27213 29.2757 8.53125 24.9996C8.71875 21.9059 9.09375 17.2184 15.0938 13.2809M27.5625 10.6559C30.1875 9.81212 33.825 9.69962 35.25 15.2496C37.0312 22.1871 37.5938 41.1246 39.375 43.3746C40.8 45.1746 42.8438 44.9372 43.6875 44.5934" stroke="black" stroke-width="0.5625" stroke-linecap="round" stroke-linejoin="round"/>
<path d="M27.1875 11.4996C29.25 10.9371 32.9062 10.6558 34.125 15.4371C35.2967 20.0336 34.0312 34.8433 34.5938 38.9683C35.1562 43.0933 38.0625 45.9996 41.5312 44.5933" stroke="black" stroke-width="0.5625" stroke-linecap="round" stroke-linejoin="round"/>
<path d="M28.3125 12.6244C30.8124 11.8744 35.7 13.2994 36 25.3744C36.375 40.4682 36.2812 44.3119 41.8125 45.6244" stroke="black" stroke-width="0.5625" stroke-linecap="round" stroke-linejoin="round"/>
<path d="M28.3125 13.3745C31.7812 13.6558 33.6375 16.8808 33.9375 21.1558C34.3125 26.4995 30.4688 39.062 33.9375 44.0308C36.7125 48.0058 39.7187 48.2495 40.875 47.8745" stroke="black" stroke-width="0.5625" stroke-linecap="round" stroke-linejoin="round"/>
<path d="M17.6826 24.6248C18.0887 24.0312 19.3701 23.0498 21.2451 23.8748M28.1376 23.8038C28.6607 23.3099 30.1211 22.6233 31.7781 23.8276" stroke="black" stroke-width="0.5625" stroke-linecap="round" stroke-linejoin="round"/>
<path d="M19.2763 23.781C19.0888 23.8748 18.7701 24.1748 18.9951 24.6248C19.2763 25.1873 20.2138 24.7185 20.1201 24.3435C20.0451 24.0435 19.7137 23.9685 19.5576 23.9685M29.8742 23.3177C29.6709 23.3697 29.2957 23.595 29.4201 24.0827C29.5753 24.6921 30.591 24.433 30.5792 24.0467C30.5696 23.7375 30.2618 23.5939 30.1091 23.5607M16.875 22.0999C17.8869 21.7858 20.2665 21.43 21.69 22.5186M27.6047 22.6243C28.2328 21.6268 30.2739 20.5307 31.7394 21.2112" stroke="black" stroke-width="0.5625" stroke-linecap="round" stroke-linejoin="round"/>
</g>
</g>
</g>
<defs>
<clipPath id="clip0_22_389">
<rect width="48" height="48" fill="white"/>
</clipPath>
<clipPath id="clip1_22_389">
<rect width="48" height="48" fill="white"/>
</clipPath>
</defs>
</svg>
