<svg width="48" height="48" viewBox="0 0 48 48" fill="none" xmlns="http://www.w3.org/2000/svg">
<g clip-path="url(#clip0_22_1063)">
<mask id="mask0_22_1063" style="mask-type:luminance" maskUnits="userSpaceOnUse" x="0" y="0" width="48" height="48">
<path d="M48 0H0V48H48V0Z" fill="white"/>
</mask>
<g mask="url(#mask0_22_1063)">
<path d="M34.9534 19.1689C35.373 19.1689 36.5023 19.6698 36.1427 21.7501C35.9848 22.6632 35.7906 22.8574 35.455 23.4813C35.1711 24.0087 34.9421 24.3888 34.4275 24.1416M13.1995 19.4631C12.4845 19.4631 11.5206 20.0669 11.8967 22.0501C12.3006 24.1784 12.9392 24.7458 13.3648 24.6186" stroke="black" stroke-width="0.5625" stroke-linecap="round" stroke-linejoin="round"/>
<path d="M15.405 13.9507C14.0578 15.9034 13.1936 17.6096 13.6238 24.5625C14.2262 34.2936 17.6351 38.523 19.662 40.5302C22.1333 42.9769 27.0302 43.9311 30.1082 40.5302C33.3583 36.939 33.8314 32.7081 34.249 25.6875C34.5261 21.0261 36.0025 15.7845 33.2177 13.125" stroke="black" stroke-width="0.5625" stroke-linecap="round" stroke-linejoin="round"/>
<path d="M24.8018 27.9375C24.0559 28.0976 23.4595 29.2052 24.0561 29.802C24.8018 30.5477 26.368 30.6969 26.517 29.802C26.6365 29.0859 26.2768 28.7038 26.0033 28.5547" stroke="black" stroke-width="0.5625" stroke-linecap="round" stroke-linejoin="round"/>
<path d="M25.131 38.0464C23.7716 38.0464 22.5034 37.8416 21.9375 37.6875C22.1415 38.1726 22.5716 39.9324 25.131 39.9324C27.6904 39.9324 28.2182 38.208 28.5484 37.6875C27.4427 38.0293 26.4904 38.0464 25.131 38.0464Z" stroke="black" stroke-width="0.5625" stroke-linecap="round" stroke-linejoin="round"/>
<path d="M16.1786 13.6324C15.1373 12.7809 15.2863 12.9287 14.3138 12.6351M16.7732 11.3239C16.2557 11.1045 15.8908 10.6916 15.5259 10.2789M35.6186 13.9697C35.6186 13.9697 34.4698 13.9065 33.3786 14.3329M34.0146 11.1827C34.0146 11.1827 33.0182 11.7581 32.3378 12.7117M32.0706 9.10875C32.0706 9.10875 31.2298 9.89381 30.7819 10.9763M29.6499 7.78613C29.6499 7.78613 28.9868 8.72625 28.7689 9.87731M26.7803 7.34531C26.7803 7.34531 26.2823 8.38256 26.2586 9.55388M23.3323 7.125C23.3323 7.125 23.0794 8.24737 23.3186 9.39412M20.1546 7.47262C20.1546 7.47262 20.6102 8.52919 21.4781 9.31575M17.8125 8.66775C17.8125 8.66775 18.3863 9.46931 19.1949 10.3449" stroke="#9747FF" stroke-width="0.5625" stroke-linecap="round" stroke-linejoin="round"/>
<path d="M17.8427 19.9884C18.1586 20.1463 18.9909 20.3145 19.9551 20.2251C20.7973 20.1471 21.1614 19.9423 21.4052 19.6875M27.5927 19.5C27.9979 19.8532 28.7051 19.9228 29.1486 19.9393C29.592 19.9562 30.0936 19.9393 30.492 19.8531M14.25 20.1499L16.8158 21.5552M22.5435 22.2733C23.5076 21.6551 25.8476 21.6538 26.3786 21.9292M31.665 21.4944C32.142 21.2464 33.6489 20.0353 34.1257 19.692M16.9029 21.666C16.8392 22.3601 16.5836 24.6047 16.9026 24.9788C17.3904 25.5506 22.1094 24.8031 22.4306 24.6894C22.7338 24.582 22.8038 23.0443 22.3239 21.8117C21.921 20.7763 18.4389 21.2166 17.0149 21.471" stroke="black" stroke-width="0.5625" stroke-linecap="round" stroke-linejoin="round"/>
<path d="M17.1622 22.6645L17.6816 21.6645C17.5333 22.2679 17.1178 23.7347 17.1622 23.913C17.2179 24.136 18.2248 21.5393 18.3364 21.5532C18.4477 21.567 17.4979 24.5472 17.4979 24.7281C17.4979 24.9092 18.6148 21.5532 18.7819 21.5532C18.9489 21.5532 17.9955 24.4768 18.1069 24.6439C18.2182 24.811 19.1301 21.6368 19.2694 21.4695C19.4085 21.3027 18.4755 24.8813 18.6287 24.8674C18.7819 24.8535 19.7846 20.9404 19.9237 21.3025C20.0631 21.6645 19.0187 25.2713 19.3807 24.9649C19.7426 24.6585 20.3829 21.024 20.6475 21.3025C20.9119 21.5809 19.9656 25.0624 20.2024 24.9649C20.439 24.8674 21.0517 21.6645 21.1631 21.6645C21.2745 21.6645 20.9961 24.8674 21.0797 24.8674C21.1631 24.8674 21.6909 22.2478 21.7607 22.0249C21.8302 21.8022 21.9572 21.9405 21.9433 22.6645C21.9321 23.2438 21.7155 24.3522 21.6506 24.7281L22.2075 23.3078M26.7718 22.8683L27.3011 21.5732C27.1524 22.1766 26.8667 23.4282 26.9111 23.6063C26.9668 23.829 27.8441 21.4478 27.9555 21.4618C28.0671 21.4757 27.3011 23.9265 27.3011 24.1075C27.3011 24.2886 28.2341 21.4618 28.4012 21.4618C28.5682 21.4618 27.7327 24.247 27.8443 24.414C27.9557 24.5811 28.7494 21.5453 28.8887 21.3784C29.0278 21.2112 28.0948 24.79 28.248 24.7759C28.4012 24.762 29.4037 20.8491 29.5431 21.2112C29.6824 21.573 28.5853 25.0825 28.9474 24.7761C29.3094 24.4697 30.0022 20.9327 30.2668 21.2112C30.5312 21.4896 29.5849 24.9711 29.8217 24.8736C30.0583 24.7761 30.6711 21.5732 30.7824 21.5732C30.8938 21.5732 30.6154 24.7761 30.699 24.7761C30.7824 24.7761 31.2002 22.3948 31.2699 22.1719C31.3393 21.9492 31.4927 22.0605 31.4788 22.7847C31.4676 23.364 31.3348 24.2608 31.2699 24.6368L31.8268 23.2165" stroke="black" stroke-width="0.5625" stroke-linecap="round" stroke-linejoin="round"/>
<path d="M26.7159 21.3351C27.8387 20.8337 30.876 21.1663 31.4447 21.3351C32.1553 21.546 32.1182 24.0868 32.0537 24.7196C31.989 25.3526 27.9163 24.7549 27.0442 24.7196C26.3466 24.6915 26.481 22.333 26.6426 21.4189" stroke="black" stroke-width="0.5625" stroke-linecap="round" stroke-linejoin="round"/>
</g>
</g>
<defs>
<clipPath id="clip0_22_1063">
<rect width="48" height="48" fill="white"/>
</clipPath>
</defs>
</svg>
