<svg width="48" height="48" viewBox="0 0 48 48" fill="none" xmlns="http://www.w3.org/2000/svg">
<g clip-path="url(#clip0_22_424)">
<g clip-path="url(#clip1_22_424)">
<mask id="mask0_22_424" style="mask-type:luminance" maskUnits="userSpaceOnUse" x="0" y="0" width="48" height="48">
<path d="M48 0H0V48H48V0Z" fill="white"/>
</mask>
<g mask="url(#mask0_22_424)">
<path d="M32.7662 19.6875C34.8992 23.7832 36.3827 31.8733 35.2952 33.2421C32.8067 36.375 20.4336 37.3125 16.0971 34.5292C13.1998 32.6698 13.0159 23.0614 14.5566 20.487M34.3151 22.8161C34.8587 22.6221 35.9106 22.104 36.1549 23.1557C36.3992 24.2074 36.3955 24.8618 36.1549 25.9508C36.0238 26.544 35.7167 26.7214 35.3479 26.7214" stroke="black" stroke-width="0.5625" stroke-linecap="round" stroke-linejoin="round"/>
<path d="M13.5306 23.3135C12.1044 22.8655 11.2644 23.6675 11.7756 25.4392C12.2599 27.1173 13.0976 27.4705 13.5306 27.3757" stroke="black" stroke-width="0.5625" stroke-linecap="round" stroke-linejoin="round"/>
<path d="M21.375 23.3897C22.0316 23.3897 22.8218 24.4562 22.8958 26.1551C23.0164 28.9121 22.1154 29.7847 22.8958 31.212C23.4073 32.1474 26.2258 32.0994 26.9927 30.5494C27.5961 29.3302 26.4435 28.2909 25.7565 26.6599C25.1012 25.1051 24.6862 24.1492 25.3714 23.25" stroke="black" stroke-width="0.5625" stroke-linecap="round" stroke-linejoin="round"/>
<path d="M23.9762 36.699C23.8644 37.449 23.8125 37.7852 23.8125 37.7852M24.4119 36.6643C24.5259 37.2006 24.4457 37.5023 24.6613 37.8662M25.2137 37.7852C25.2137 37.7852 25.0162 37.2463 25.0162 36.6429M25.6494 36.5625C25.7661 37.3136 26.0085 37.6774 26.0085 37.6774" stroke="black" stroke-width="0.5625" stroke-linecap="round" stroke-linejoin="round"/>
<path d="M19.125 34.2721C19.125 34.2721 20.1915 33.7503 20.4581 32.8556M20.6574 33.1822C20.6998 33.3402 19.3551 34.9263 19.3551 34.9263M21.0411 33.1049C20.9383 33.8907 20.0642 35.0407 20.0642 35.0407M20.5534 35.2563C20.5534 35.2563 21.5415 34.349 21.63 33.3183M22.0442 33.2577C22.0442 33.914 21.7313 35.3568 21.7313 35.3568M26.9276 32.9472L26.9274 35.2527M21.8878 35.2835C21.8878 35.2835 22.6674 34.3029 22.6674 33.4929M27.5908 34.9214C27.5908 34.9214 27.0223 33.7443 27.0223 32.9339M23.1272 33.4207C23.1831 33.863 22.5806 35.2419 22.5806 35.2419M28.7848 32.7896C28.8407 33.2319 29.8001 34.3591 29.8001 34.3591M27.5906 33.0093C27.6467 33.4518 28.5015 34.8461 28.5015 34.8461M23.5658 33.3858C23.454 34.1358 23.3308 35.3771 23.3308 35.3771M27.9043 32.8749L29.0987 34.5948M24.0015 33.3511C24.1155 33.8874 24.1453 34.9691 24.6932 35.3366M29.3409 32.8602C29.6301 33.3065 30.1746 33.974 30.8863 34.1497M24.7562 33.1814C24.7562 33.4317 24.4217 34.2864 24.9354 35.2687M25.8608 35.3375C25.8608 35.3375 24.9356 34.1876 24.9356 33.1814M25.398 33.1147C25.398 33.8332 26.5549 35.3568 26.5549 35.3568M26.7276 35.2464C26.6038 34.8725 26.0046 33.5127 26.0719 32.9099" stroke="black" stroke-width="0.5625" stroke-linecap="round" stroke-linejoin="round"/>
<path d="M13.3213 12.5096C12.4841 15.5169 13.5857 16.8259 13.5857 17.4418C13.5857 18.0577 14.3786 13.8081 14.8001 11.4615L14.2455 18.9816L16.0858 10.8879L15.4554 19.8615L17.2703 10.5122C17.0685 14.1052 16.6763 21.0934 16.7203 20.3016C16.7642 19.5096 17.9488 13.3048 18.4988 10.0967L18.0043 20.3016L19.7447 10.5122L19.4876 20.3016L21.1095 10.5122L20.7351 20.7966L22.4949 10.5122L22.2171 20.7966L23.6411 11.0064V20.7966L25.0796 11.6394V20.7966L26.3996 12.1071C26.253 15.4069 26.3117 21.5445 26.3996 20.7966C26.4876 20.0486 27.2428 15.0945 27.6096 12.5096L27.4583 20.7966L28.8195 13.0419L28.6682 20.7966L29.9194 13.482V20.1836L31.0382 13.8546L30.7993 20.1836L31.9253 14.8039L32.0642 19.8615L32.6402 14.8039L32.8633 18.7882L33.6988 15.5814V18.9816" stroke="#F24E1E" stroke-width="1.125" stroke-linecap="round" stroke-linejoin="round"/>
<path d="M32.844 19.9961C29.6413 21.8441 16.2497 21.7183 14.0799 19.2784C10.7363 15.5188 12.2334 12.0465 14.4159 11.1458C16.5984 10.245 18.381 8.51364 25.2272 11.1458C32.0736 13.7777 35.1975 14.6441 34.6101 18.3889C34.0224 22.1335 30.1202 23.2003 25.8883 22.3305C21.6564 21.4607 16.1203 24.2275 14.703 21.7183C14.5118 21.4153 14.1863 20.6468 14.4159 19.9961" stroke="black" stroke-width="0.5625" stroke-linecap="round" stroke-linejoin="round"/>
<path d="M33.9246 20.1453C34.6761 18.4968 36.8016 14.8829 39.2929 13.6143" stroke="#F24E1E" stroke-width="0.5625" stroke-linecap="round" stroke-linejoin="round"/>
<path d="M35.0603 18.8443C35.8513 18.7354 37.6943 18.2293 38.7381 17.0765C40.0429 15.6354 41.3548 14.117 41.005 12.8353C40.6551 11.5534 38.7017 13.0213 37.7725 12.9352C36.8434 12.8492 33.9769 17.6675 34.3196 19.0267" stroke="#F24E1E" stroke-width="0.5625" stroke-linecap="round" stroke-linejoin="round"/>
<path d="M19.9733 28.3075C19.8373 28.2072 19.0104 27.8723 18.5786 27.1525C18.1468 26.4331 18.1181 25.7135 18.5786 25.3968C18.888 25.1841 19.5437 25.5246 19.9733 25.8155M20.1418 25.6906C20.4214 25.382 20.9143 25.1221 21.3998 25.3968C21.7254 25.5811 21.6876 26.7209 21.3998 27.1527C21.1686 27.4994 20.4257 28.079 20.1418 28.2642M27.879 25.547C27.4665 25.1536 26.5434 24.5395 26.1519 25.2305C25.6626 26.0939 27.1976 27.6631 28.0622 28.0216M28.2705 28.126C28.6926 27.8093 29.5774 27.1186 29.7386 26.8881C29.94 26.6003 30.2567 25.3913 29.7386 24.902C29.2204 24.4126 28.1265 25.1035 28.1265 25.8807" stroke="#F24E1E" stroke-width="0.5625" stroke-linecap="round" stroke-linejoin="round"/>
<path d="M18.1875 22.7385C18.3069 22.4723 18.7382 21.9623 19.5094 22.0502C20.4729 22.1603 20.6657 22.3257 20.886 22.7385M26.8419 22.3525C26.9522 22.0405 27.4147 21.4493 28.3839 21.5815C29.3533 21.7137 29.7058 22.2608 29.7607 22.5177" stroke="black" stroke-width="0.5625" stroke-linecap="round" stroke-linejoin="round"/>
</g>
</g>
</g>
<defs>
<clipPath id="clip0_22_424">
<rect width="48" height="48" fill="white"/>
</clipPath>
<clipPath id="clip1_22_424">
<rect width="48" height="48" fill="white"/>
</clipPath>
</defs>
</svg>
