<svg width="48" height="48" viewBox="0 0 48 48" fill="none" xmlns="http://www.w3.org/2000/svg">
<g clip-path="url(#clip0_22_1089)">
<mask id="mask0_22_1089" style="mask-type:luminance" maskUnits="userSpaceOnUse" x="0" y="0" width="48" height="48">
<path d="M48 0H0V48H48V0Z" fill="white"/>
</mask>
<g mask="url(#mask0_22_1089)">
<path d="M32.7662 19.6875C34.8992 23.7832 36.3827 31.8733 35.2952 33.2421C32.8067 36.375 20.4336 37.3125 16.0971 34.5292C13.1998 32.6698 13.0159 23.0614 14.5566 20.487M34.3151 22.8161C34.8587 22.6221 35.9106 22.104 36.1549 23.1557C36.3992 24.2074 36.3954 24.8618 36.1549 25.9508C36.0238 26.544 35.7167 26.7214 35.3479 26.7214" stroke="black" stroke-width="0.5625" stroke-linecap="round" stroke-linejoin="round"/>
<path d="M13.5306 23.3135C12.1044 22.8655 11.2644 23.6675 11.7756 25.4392C12.2599 27.1173 13.0976 27.4705 13.5306 27.3757" stroke="black" stroke-width="0.5625" stroke-linecap="round" stroke-linejoin="round"/>
<path d="M23.4375 31.0881C24.1249 31.0881 25.0382 30.8002 25.1678 29.9784C25.2806 29.2637 24.1146 29.3766 23.7949 28.5679C23.4752 27.7592 23.6274 25.2547 23.7949 24.1875" stroke="black" stroke-width="0.5625" stroke-linecap="round" stroke-linejoin="round"/>
<path d="M24.756 33.1714C23.3966 33.1714 22.1284 32.9666 21.5625 32.8125C21.7665 33.2976 22.1966 35.0574 24.756 35.0574C27.3154 35.0574 27.8432 33.333 28.1734 32.8125C27.0677 33.1543 26.1154 33.1714 24.756 33.1714Z" stroke="black" stroke-width="0.5625" stroke-linecap="round" stroke-linejoin="round"/>
<path d="M24.4856 13.7729C23.2914 15.293 21.0114 15.7273 19.6001 15.9442C17.1793 16.3168 15.9562 17.6814 14.9317 21.047C13.4979 25.7576 14.3205 29.7828 13.9072 33.3149C13.4119 37.5491 14.6784 38.4176 14.9317 38.6347" stroke="#0FA958" stroke-width="0.5625" stroke-linecap="round" stroke-linejoin="round"/>
<path d="M24.5942 12.7959C23.6895 14.0986 21.2503 14.4678 18.2974 15.0759C14.6061 15.8358 12.1702 21.2641 12.4959 28.7551C12.7566 34.748 12.6045 37.8386 12.4959 38.6347" stroke="#0FA958" stroke-width="0.5625" stroke-linecap="round" stroke-linejoin="round"/>
<path d="M10.4807 36.4636C11.4576 35.0523 11.3287 32.2655 11.1321 30.1668C10.4807 23.2184 12.1089 18.1158 14.3889 15.6187C17.2637 12.4706 21.8801 14.099 24.4856 12.0361" stroke="#0FA958" stroke-width="0.5625" stroke-linecap="round" stroke-linejoin="round"/>
<path d="M24.1599 11.3847C22.5315 10.2991 19.4047 10.9938 17.7546 11.6019C15.6919 12.3618 11.1516 15.365 10.4807 22.2414C9.71625 30.0762 7.82156 35.6654 10.4807 38.1284" stroke="#0FA958" stroke-width="0.5625" stroke-linecap="round" stroke-linejoin="round"/>
<path d="M8.41781 40.4807C9.28631 38.0921 7.875 36.138 7.875 31.7953C7.875 28.0785 9.65625 19.542 10.9622 17.0302C12.3735 14.3162 12.9028 12.9296 15.4746 11.2762C18.5145 9.32212 22.9468 8.32124 24.6838 11.0353M25.2521 10.8459C28.2921 8.0233 31.1516 10.4511 33.0624 12.7961C35.4508 15.7275 36.1635 16.7046 36.8149 22.8928C37.4662 29.0812 37.197 29.7975 37.3577 31.6867C37.5673 34.1499 38.4966 35.0259 40.125 36.3287" stroke="#0FA958" stroke-width="0.5625" stroke-linecap="round" stroke-linejoin="round"/>
<path d="M25.2456 12.2534C27.0913 14.099 28.1946 13.196 30.0834 14.0669C32.958 15.3922 33.993 17.2122 34.5358 20.035C35.0788 22.8577 34.1016 29.1505 34.5358 31.2132C34.8832 32.8636 35.4832 34.4341 37.5673 35.0026" stroke="#0FA958" stroke-width="0.5625" stroke-linecap="round" stroke-linejoin="round"/>
<path d="M25.2456 11.4932C27.6204 10.9404 28.2204 11.0372 30.1311 11.8189C32.5196 12.7959 35.6207 16.7044 35.5121 22.3498C35.4036 27.9953 34.6436 32.5551 38.0091 36.1378" stroke="#0FA958" stroke-width="0.5625" stroke-linecap="round" stroke-linejoin="round"/>
<path d="M25.137 13.0132C25.3468 13.7825 26.1283 14.6647 28.2836 15.2036C32.5464 16.2693 33.4492 20.5044 33.6664 24.4128C33.8835 28.3211 32.8402 31.6921 34.2516 34.6235C35.3464 36.8971 36.9041 37.7497 38.1356 37.7497" stroke="#0FA958" stroke-width="0.5625" stroke-linecap="round" stroke-linejoin="round"/>
<path d="M25.0284 13.9902C25.3541 16.1615 27.6341 16.4874 30.4568 18.2244C33.2796 19.9615 33.1969 24.4621 32.6413 29.129C32.1677 33.1077 33.2096 35.855 36.1463 35.855" stroke="#0FA958" stroke-width="0.5625" stroke-linecap="round" stroke-linejoin="round"/>
<path d="M18.3216 24.2354C18.4911 23.7764 19.0982 22.8683 20.1714 22.909C21.2449 22.9497 21.7288 23.5471 21.8366 23.8407M26.6572 23.9253C26.8429 23.3903 27.4478 22.3514 28.3819 22.4755C29.3158 22.5997 29.7892 23.2878 29.9091 23.6163M18 27.3586C18.5147 26.6152 19.7869 26.125 20.8007 26.2173C22.068 26.3324 21.6159 27.4417 21.2919 27.5748C20.8841 27.742 20.3297 27.4192 20.6754 26.9583C20.952 26.5897 21.2093 26.9583 21.1393 27.1109M26.9263 26.552C27.2528 26.2257 28.1361 25.5843 29.0578 25.6302C30.21 25.688 30.5162 26.2426 30.1704 26.6459C29.8249 27.049 29.3243 27.1068 29.3243 26.6459C29.3243 26.185 29.6992 26.1659 29.847 26.4715" stroke="black" stroke-width="0.5625" stroke-linecap="round" stroke-linejoin="round"/>
</g>
</g>
<defs>
<clipPath id="clip0_22_1089">
<rect width="48" height="48" fill="white"/>
</clipPath>
</defs>
</svg>
