<svg width="48" height="48" viewBox="0 0 48 48" fill="none" xmlns="http://www.w3.org/2000/svg">
<g clip-path="url(#clip0_22_173)">
<mask id="mask0_22_173" style="mask-type:luminance" maskUnits="userSpaceOnUse" x="0" y="0" width="48" height="48">
<path d="M48 0H0V48H48V0Z" fill="white"/>
</mask>
<g mask="url(#mask0_22_173)">
<path d="M34.7777 20.3711C35.1973 20.3711 36.4601 20.5121 36.1005 22.5922C35.9426 23.5053 35.7917 24.0033 35.4562 24.627C35.1724 25.1546 34.7664 25.5909 34.2517 25.3438M13.3627 20.9703C12.6478 20.9703 11.5106 21.9656 11.8869 23.9488C12.2906 26.0771 13.1025 26.2532 13.5279 26.1258" stroke="black" stroke-width="0.5625" stroke-linecap="round" stroke-linejoin="round"/>
<path d="M15.1031 17.808C14.3287 18.7264 14.0233 18.7264 13.2772 22.6264C12.5313 26.5264 20.5372 39.7511 23.9966 39.7511C26.6171 39.7511 28.529 37.4229 30.3425 34.4004C31.5973 32.3091 35.2181 22.9123 34.724 20.6619C34.2302 18.4119 34.0601 17.5556 33.0502 16.875" stroke="black" stroke-width="0.5625" stroke-linecap="round" stroke-linejoin="round"/>
<path d="M25.6542 23.8125C26.1525 25.3269 27.0683 28.548 26.745 29.3164C26.341 30.2768 25.7162 28.9028 25.7162 29.9739C25.5208 30.5001 25.0078 30.5721 24.7654 29.6858C24.523 28.7993 23.7874 30.3435 23.5448 29.9739C22.8827 29.6858 23.4201 28.6489 23.7838 28.3164" stroke="black" stroke-width="0.5625" stroke-linecap="round" stroke-linejoin="round"/>
<path d="M21.1875 34.617C22.1792 35.0745 23.7176 36.1086 25.4348 36.0564C27.5211 35.9932 28.1736 34.9069 28.4578 34.3125" stroke="black" stroke-width="0.5625" stroke-linecap="round" stroke-linejoin="round"/>
<path d="M24.6127 34.5578C24.0465 34.2079 23.001 34.8951 22.7604 35.3458C23.0447 36.3793 24.1286 37.0654 25.3676 37.0654C26.7307 37.0654 27.4796 35.8901 27.6051 35.475L27.6019 35.4686C27.4849 35.248 27.2775 34.8563 26.7266 34.5578C26.0314 34.1811 25.5688 35.6953 25.4394 35.6953C25.3102 35.6953 25.3309 35.0016 24.6126 34.5578H24.6127Z" stroke="black" stroke-width="0.5625" stroke-linecap="round" stroke-linejoin="round"/>
<path d="M14.9535 17.7973L9.1875 13.0234C10.3054 11.0619 15.8786 6.75 19.1931 6.75C23.3361 6.75 22.6988 9.44062 24.2479 9.44062C26.6319 9.44062 26.3511 8.86969 27.9292 7.13906C29.1919 5.75456 36.0504 8.4225 40.3249 10.3839L32.9717 16.8189C31.788 16.1844 27.2646 15.2732 23.9837 15.2732C20.7999 15.2732 16.4002 16.8167 14.9535 17.7973Z" stroke="#0FA958" stroke-width="0.5625" stroke-linecap="round" stroke-linejoin="round"/>
<path d="M29.6066 9.18669C29.4307 10.7776 29.0488 14.7616 29.0488 15.4169C29.0488 16.1437 28.1216 10.4384 27.974 10.0788L27.6988 15.1372L26.9694 10.5635L26.595 15.1372L25.7137 10.64L25.5952 14.5629L24.3769 10.5635L23.9179 14.5629L23.0799 10.5635L22.7602 14.5629L21.6795 10.2193L22.1059 14.813L19.442 8.91895L21.0274 15.1372L20.2429 13.6818L17.811 9.18669L19.442 15.6204L16.599 9.73513L18.3043 16.0378L15.0712 10.5635L16.599 15.6204L13.8634 11.4813L16.3147 16.6445L13.5435 12.4681L15.4976 17.1579L12.3356 12.4681L13.5435 16.2238L11.696 13.4628M30.1592 15.4169L31.1657 9.5512V15.8795L32.6934 10.2193L32.3735 15.1372L33.8407 10.64L32.6934 16.2238L34.7895 10.9404L34.5052 14.5629L35.9619 11.2957V13.0366L36.9922 11.8996" stroke="#0FA958" stroke-width="1.125" stroke-linecap="round" stroke-linejoin="round"/>
<path d="M10.5388 13.774C12.435 11.9567 16.7843 8.29899 19.0121 8.20393C21.2402 8.10924 19.9603 9.21136 22.5675 10.4558L26.7746 10.0409C28.1968 9.50762 28.647 7.99074 30.2113 8.55962C31.7758 9.1283 35.1051 10.7359 38.2654 11.8026" stroke="#0FA958" stroke-width="0.5625" stroke-linecap="round" stroke-linejoin="round"/>
<path d="M19.1691 21.6694C19.6434 22.0131 20.6122 22.7887 20.6906 23.142C20.7694 23.4954 19.0547 24.1399 18.1875 24.4181M30.2618 21.375C29.5909 21.6204 28.2887 22.1899 28.4458 22.5038C28.6421 22.8966 29.7311 23.1844 30.2618 23.5837" stroke="black" stroke-width="0.5625" stroke-linecap="round" stroke-linejoin="round"/>
</g>
</g>
<defs>
<clipPath id="clip0_22_173">
<rect width="48" height="48" fill="white"/>
</clipPath>
</defs>
</svg>
