<svg width="37" height="37" viewBox="0 0 37 37" fill="none" xmlns="http://www.w3.org/2000/svg">
<path fill-rule="evenodd" clip-rule="evenodd" d="M19.0328 14.1349C10.9688 17.7736 5.86029 26.4128 7.19168 34.1823C7.48697 35.9607 6.9153 36.2622 5.35719 35.1406C3.90615 34.1011 3.53411 29.9377 4.48867 25.5412C5.78019 19.6085 12.8207 12.8559 17.1913 12.0154C19.1106 11.6352 21.6895 12.9379 19.0328 14.1349Z" fill="black"/>
<path fill-rule="evenodd" clip-rule="evenodd" d="M14.5395 3.64741C4.56001 10.0755 9.17569 10.0835 11.9067 8.50843L13.5987 7.53255C20.3168 17.0677 22.4124 21.0015 27.3806 30.0427C22.4084 32.9104 21.3966 33.4544 23.2078 34.3283C24.1645 34.7852 24.4426 34.6841 30.5811 31.1636C36.4758 27.8034 36.586 27.72 36.2945 27.2157C35.6258 26.0587 34.4375 26.0913 32.0175 27.3486L30.1108 28.3296C28.5419 25.615 21.6336 13.559 20.0158 11.3077C15.6482 5.2231 15.7794 5.99794 18.6559 4.16094C23.5355 1.03021 20.2007 0.362524 18.7009 1.08904C17.8675 1.53019 16.6168 2.31089 14.5395 3.64741Z" fill="black"/>
</svg>
