<svg width="37" height="37" viewBox="0 0 37 37" fill="none" xmlns="http://www.w3.org/2000/svg">
<path fill-rule="evenodd" clip-rule="evenodd" d="M19.0328 14.1348C10.9688 17.7735 5.86029 26.4127 7.19168 34.1822C7.48697 35.9606 6.9153 36.262 5.35719 35.1405C3.90615 34.101 3.53411 29.9376 4.48867 25.5411C5.78019 19.6084 12.8207 12.8558 17.1913 12.0152C19.1106 11.6351 21.6895 12.9378 19.0328 14.1348Z" fill="black"/>
<path fill-rule="evenodd" clip-rule="evenodd" d="M14.5395 3.64729C4.56001 10.0754 9.17569 10.0834 11.9067 8.50831L13.5987 7.53243C20.3168 17.0676 22.4124 21.0013 27.3806 30.0426C22.4084 32.9103 21.3966 33.4542 23.2078 34.3281C24.1645 34.785 24.4426 34.684 30.5811 31.1635C36.4758 27.8032 36.586 27.7199 36.2945 27.2156C35.6258 26.0585 34.4375 26.0912 32.0175 27.3484L30.1108 28.3295C28.5419 25.6149 21.6336 13.5589 20.0158 11.3076C15.6482 5.22297 15.7794 5.99782 18.6559 4.16082C23.5355 1.03009 20.2007 0.362402 18.7009 1.08892C17.8675 1.53006 16.6168 2.31077 14.5395 3.64729Z" fill="black"/>
</svg>
