<svg width="37" height="37" viewBox="0 0 37 37" fill="none" xmlns="http://www.w3.org/2000/svg">
<path fill-rule="evenodd" clip-rule="evenodd" d="M19.0328 14.135C10.9688 17.7737 5.86029 26.413 7.19168 34.1824C7.48697 35.9608 6.9153 36.2623 5.35719 35.1408C3.90615 34.1012 3.53411 29.9378 4.48867 25.5413C5.78019 19.6087 12.8207 12.8561 17.1913 12.0155C19.1106 11.6353 21.6895 12.938 19.0328 14.135Z" fill="black"/>
<path fill-rule="evenodd" clip-rule="evenodd" d="M14.5396 3.64753C4.56013 10.0756 9.17581 10.0836 11.9068 8.50855L13.5988 7.53267C20.3169 17.0678 22.4125 21.0016 27.3807 30.0428C22.4085 32.9105 21.3967 33.4545 23.2079 34.3284C24.1647 34.7853 24.4427 34.6843 30.5812 31.1637C36.4759 27.8035 36.5861 27.7202 36.2946 27.2158C35.6259 26.0588 34.4376 26.0914 32.0176 27.3487L30.1109 28.3297C28.542 25.6151 21.6337 13.5591 20.016 11.3079C15.6484 5.22322 15.7795 5.99807 18.656 4.16106C23.5356 1.03033 20.2008 0.362646 18.7011 1.08916C17.8676 1.53031 16.6169 2.31101 14.5396 3.64753Z" fill="black"/>
</svg>
