<svg width="37" height="37" viewBox="0 0 37 37" fill="none" xmlns="http://www.w3.org/2000/svg">
<path fill-rule="evenodd" clip-rule="evenodd" d="M19.0328 14.1348C10.9688 17.7735 5.86029 26.4127 7.19168 34.1822C7.48697 35.9606 6.9153 36.262 5.35719 35.1405C3.90615 34.101 3.53411 29.9376 4.48867 25.5411C5.78019 19.6084 12.8207 12.8558 17.1913 12.0152C19.1106 11.6351 21.6895 12.9378 19.0328 14.1348Z" fill="black"/>
<path fill-rule="evenodd" clip-rule="evenodd" d="M14.5396 3.64729C4.56013 10.0754 9.17581 10.0834 11.9068 8.50831L13.5988 7.53243C20.3169 17.0676 22.4125 21.0013 27.3807 30.0426C22.4085 32.9103 21.3967 33.4542 23.2079 34.3281C24.1647 34.785 24.4427 34.684 30.5812 31.1635C36.4759 27.8032 36.5861 27.7199 36.2946 27.2156C35.6259 26.0585 34.4376 26.0912 32.0176 27.3484L30.1109 28.3295C28.542 25.6149 21.6337 13.5589 20.016 11.3076C15.6484 5.22297 15.7795 5.99782 18.656 4.16082C23.5356 1.03009 20.2008 0.362402 18.7011 1.08892C17.8676 1.53006 16.6169 2.31077 14.5396 3.64729Z" fill="black"/>
</svg>
